<svg id="Layer_1" data-name="Layer 1" xmlns="http://www.w3.org/2000/svg" viewBox="0 0 1920 437"><defs><style>.cls-1{fill:#f2f2f3;}</style></defs><title>-logo-Artboard 1 copy 2SVG</title><path class="cls-1" d="M1244.48,188.54l-26.09,121.13c-3.41,16.74-9.08,29.5-28.37,29.5-9.93,0-22.41-5.1-17-29.5l26.11-121.13H1116L1098,272.63l15.67,106.13c15.86,9.79,38.88,14.6,68.66,14.6,83.68,0,107.8-29.22,119.43-84.82l25.82-120Z"/><path class="cls-1" d="M1521.46,195l1.36-6.45H1348.29L1337,241h34l-31.2,147.23h83.4L1454.45,241h30.79A129.07,129.07,0,0,1,1521.46,195Z"/><path class="cls-1" d="M1701.28,223.82h-94.94l8.92-40.23c-88.53,3.29-123.68,63.6-123.68,121,0,45.39,27,88.8,108.94,88.8,68,0,110.15-30.09,126.33-74.6h-46.63Zm-97.36,118.76c-19.29,0-24.11-16.74-24.11-34,0-25.25,11.06-76.6,42-76.6,18.16,0,25,12.77,25,31.49C1646.76,290.66,1637.11,342.58,1603.92,342.58Z"/><polygon class="cls-1" points="1793.06 149.1 1808.03 81.59 1753.53 81.59 1738.56 149.1 1643.62 149.1 1631.54 203.6 1726.47 203.6 1705.42 298.54 1759.92 298.54 1780.97 203.6 1875.91 203.6 1888 149.1 1793.06 149.1"/><path class="cls-1" d="M907.75,169.39c-41.18-40.8-68,16.44-68,16.44-27-27.88-184.11-3.54-184.11-3.54l-15-30.66-51.22-7.2S807.3,121.26,802,96.41s-8.31-36.52-138.1-45.35S440,62,440,62s-53.71,8.26-101.84,31.86S258,123.74,258,123.74c-63.88,11-126.72,26.44-171.25,43.45s-45.35,42.08-45.35,42.08c-33.53,30.77-12.69,101-12.69,101-13.15,14.93,8.89,25.5,8.89,25.5C26.28,344.31,29,355.62,29,355.62c81,46.69,293.15,43.49,293.15,43.49H458.1c55,0,147.92-31.76,147.92-31.76l76.69-20.46c76.69-20.46,194-25.65,221.21-30.49S948.93,210.18,907.75,169.39Zm-111-78.2s5.19,8.24-10.45,8.24-193.67,5.9-193.67,5.9S776.27,52.85,796.8,91.19ZM602.38,77.42l-62,31.1L415.6,128.35l-87.5-5.88S421.47,52.06,602.38,77.42Zm-548,166.2,14.88-13.76s2.62-1.88,7.31-1.2l86.37,15-7.79,11.78,22.48-6.31s20,7.8,83.18,1.95,62.38-3.36,96.84-32.78c0,0,1.28,37-120.81,42.46S197,273.32,54.41,243.62Zm159.79-27.1S396,171.42,364,204.18L314,207s-23.91,40.2-28.89,3l-34.88,4.68s-18.3,27.34-20.85,1Zm2.52,145.92s140.72-28.05,160.48-6.56ZM204.13,185,343.71,159.1c9.09-1.89,18.59-3.67,28.48-5.27l-28.48,5.27C253,178,202.64,209.24,202.64,209.24c-45.62,11.65-126-8.7-126-8.7,36.87-44.25,197.84-71.35,197.84-71.35,19.29,1.67,106.47,6.74,136.71,8.48,3.45.13,6.91.33,10.36.59l-10.36-.59C306.6,133.54,204.13,185,204.13,185Zm273.11,202c-41.05,1.25-73.77-38.13-72.56-87.22,1.19-48.28,34.84-86.85,74.68-86.85,39.29,0,70.75,37.61,70.75,84.67C550.11,345.34,517.72,385.68,477.24,386.91Zm1.27-205.2,87.61-33.21S644,177.52,622,187l-71.86,11.64L554.72,224S527,178,478.51,181.71Zm99.88,136s23.64-27.2,102.37-42.19,114.6-28.26,141.67,1.36Zm313.92-6.21c-19.59.58-35.11-31.7-34.54-70.95.55-38,16.08-68,34.58-68,18.34,0,33.52,29.53,34,67C926.91,278.22,911.73,310.93,892.31,311.51Z"/><path class="cls-1" d="M885.39,214.41c7.57-11.41,6.3-18.2,6.3-18.2s.68-7-10.42-6.23-6.78,7.33-6.78,7.33c5.23,14.27-3.58,30.85-3.58,30.85C875.12,230.12,877.82,225.82,885.39,214.41Z"/><path class="cls-1" d="M903.59,212.59c-13,17.16-27.91,22.91-27.91,22.91-8.53,5.55,13.84,6.94,24.33,8.22s10-5.91,10-5.91C909,212.33,903.59,212.59,903.59,212.59Z"/><path class="cls-1" d="M879.12,251.29c-8.14-1.27-3.49,5.06-3.49,5.06,16.4,23.1,8.33,43.53,8.33,43.53,11.74-2.55,18.35-15.45,18.35-15.45C918.83,251.54,887.26,252.57,879.12,251.29Z"/><path class="cls-1" d="M461.06,272.93s-.33,21.45,14.21,6.3,28.15-24.6,24.3-41.71S449,227.3,449,227.3,465.45,242.29,461.06,272.93Z"/><path class="cls-1" d="M507.73,262.35,478,283.89s-10.68,8,2.66,12.85,40.27,12.48,45.68,9.83-2.49-35.54-6.94-44S507.73,262.35,507.73,262.35Z"/><path class="cls-1" d="M452.75,306.66s-19,27.84-24.3,35.76,0,12,0,12,23.59,13.68,29.66,14.11,7.31,3.31,14.78-9.28-9.05-44.26-13-53.2S452.75,306.66,452.75,306.66Z"/><path class="cls-1" d="M447.71,302.94s15.85-13.16,4.19-37.32S434,242.69,434,242.69s-22.44,16.55-20,70.9C414,313.59,427.65,324.5,447.71,302.94Z"/><path class="cls-1" d="M998.49,241c-6.52,18.15-18.43,46.24-26.66,65h32.91c-1.42-15.88-3.12-46.24-4.26-65Z"/><path class="cls-1" d="M955.09,188.54l-15,27.57A152,152,0,0,1,943,245.49c0,53.58-27.37,96.27-61.31,96.27a41,41,0,0,1-9.12-1.05l-25.8,47.54h85.39l14.76-30.07h62.69l2.55,30.07h82.55l-29.5-199.71ZM971.83,306c8.23-18.72,20.14-46.81,26.66-65h2c1.14,18.72,2.84,49.08,4.26,65Z"/><path class="cls-1" d="M879.45,144.82a41.76,41.76,0,0,1,12.22,2.07,63.46,63.46,0,0,1-2.86-19c0-18.8,7.1-37.68,22.16-51l.15-.71h.67c9.7-8.32,22.6-14.37,38.91-16.76l3.43-16.25H829.39l-7,33h36.23l-19.27,90.92C850.13,153,864.08,144.58,879.45,144.82Z"/><path class="cls-1" d="M901.53,127.92c0,20.7,10.53,43.36,54.07,43.36,21.17,0,35.72-4.75,45.68-11.62L1006,137.2H972.73c-2.31,5.89-6.24,8.21-12.31,8.21-5.35,0-8.74-3-8.74-10.35A36.78,36.78,0,0,1,952,131h55.31l5.78-27.43c1.06-5,2-9.57,2.86-13.63C1007.6,78.39,991.66,71,966.67,71,921.88,71,901.53,97.76,901.53,127.92Zm66.57-32.3c5.17,0,8,2.85,8,7.67a26.24,26.24,0,0,1-.72,6.07H956.14C957.57,99.9,962.74,95.62,968.1,95.62Z"/><path class="cls-1" d="M1114.43,71c-19.63,0-29.8,9.64-36,20.17a107.36,107.36,0,0,0,2.14-17.67H1032c-.71,5.36-2.86,15.88-6.42,32.66l-13.21,62.63h51.75l7.14-34.26c3.92-18.2,17-20.16,33.19-19.45Z"/><path class="cls-1" d="M1211,131l6.33-30.1c.61-3,1.16-5.59,1.65-8C1211.3,79.68,1194.82,71,1167.71,71c-18.29,0-32.49,4.47-42.91,11.8l-10.3,45.45-10.62-.46-1.3,0v.17c0,20.7,10.53,43.36,54.07,43.36,23.52,0,38.89-5.86,48.85-14l4.22-20.09h-35.94c-2.32,5.89-6.25,8.21-12.31,8.21-5.36,0-8.75-3-8.75-10.35a34.67,34.67,0,0,1,.36-4.11Zm-41.9-35.33c5.17,0,8,2.85,8,7.67a26.73,26.73,0,0,1-.71,6.07h-19.28C1158.61,99.9,1163.79,95.62,1169.14,95.62Z"/><path class="cls-1" d="M1317.08,71c-14.81,0-23.74,4.82-31.59,11.07.36-2.86.72-7.32.72-8.57h-50.33c-.71,4.11-2,10.17-6.06,30l-13.74,65.31h51.75l11.42-54.07c2.32-11.42,6.42-13.56,10.17-13.56,4.64,0,5.89,3,4.28,10.89l-12,56.74h51.75l12.5-59.42C1351,85.81,1341.88,71,1317.08,71Z"/></svg>