<svg id="Layer_1" data-name="Layer 1" xmlns="http://www.w3.org/2000/svg" viewBox="0 0 500 500"><defs><style>.cls-1{fill:#c42127;}.cls-2{fill:#231f20;}.cls-3{fill:none;}</style></defs><title>-logo-Artboard 3SVG</title><path class="cls-1" d="M451.08,144.85c-19-18.8-31.35,7.58-31.35,7.58-12.44-12.85-84.84-1.64-84.84-1.64L328,136.67l-23.6-3.32s100.42-10.67,98-22.13-3.83-16.82-63.63-20.89-103.21,5-103.21,5S210.78,99.15,188.6,110s-36.89,13.79-36.89,13.79c-29.44,5.08-58.39,12.18-78.91,20s-20.9,19.39-20.9,19.39c-15.45,14.18-5.84,46.54-5.84,46.54-6.07,6.87,4.09,11.74,4.09,11.74-5.23,3.94-4,9.15-4,9.15,37.31,21.51,135.08,20,135.08,20h62.62c25.36,0,68.16-14.64,68.16-14.64l35.34-9.42c35.34-9.43,89.38-11.82,101.93-14S470.06,163.64,451.08,144.85Zm-51.12-36s2.39,3.79-4.82,3.79-89.23,2.72-89.23,2.72S390.5,91.15,400,108.82Zm-89.58-6.35L281.82,116.8l-57.51,9.14L184,123.23S227,90.79,310.38,102.47ZM57.88,179.05l6.86-6.34a4.89,4.89,0,0,1,3.37-.55l39.79,6.89-3.58,5.43,10.35-2.9s9.24,3.59,38.33.89,28.74-1.55,44.62-15.1c0,0,.59,17.06-55.66,19.56S123.6,192.74,57.88,179.05Zm73.63-12.48s83.78-20.78,69-5.69l-23.06,1.32s-11,18.52-13.31,1.37l-16.07,2.16s-8.43,12.6-9.61.45Zm1.16,67.23s64.84-12.92,74-3ZM126.87,152l64.31-11.91c4.2-.87,8.57-1.69,13.13-2.43l-13.13,2.43c-41.78,8.72-65,23.1-65,23.1-21,5.37-58.07-4-58.07-4,17-20.39,91.16-32.87,91.16-32.87,8.89.77,49.06,3.1,63,3.9,1.59.07,3.18.16,4.78.28l-4.78-.28C174.09,128.33,126.87,152,126.87,152Zm125.84,93.06c-18.91.57-34-17.57-33.43-40.19.55-22.25,16.05-40,34.41-40,18.1,0,32.6,17.33,32.6,39C286.29,225.92,271.36,244.51,252.71,245.08Zm.59-94.55,40.37-15.31S329.54,148.6,319.4,153l-33.11,5.36L288.42,170S275.64,148.83,253.3,150.53Zm46,62.67s10.89-12.54,47.17-19.44,52.81-13,65.28.62ZM444,210.34c-9,.26-16.18-14.61-15.92-32.7.26-17.52,7.41-31.32,15.93-31.32s15.45,13.61,15.69,30.87C459.91,195,452.91,210.07,444,210.34Z"/><path class="cls-2" d="M440.78,165.59c3.49-5.25,2.9-8.38,2.9-8.38s.32-3.22-4.8-2.87-3.12,3.37-3.12,3.37c2.41,6.58-1.65,14.22-1.65,14.22C436,172.83,437.29,170.85,440.78,165.59Z"/><path class="cls-2" d="M449.16,164.75c-6,7.91-12.86,10.56-12.86,10.56-3.93,2.56,6.38,3.2,11.22,3.79s4.62-2.72,4.62-2.72C451.67,164.64,449.16,164.75,449.16,164.75Z"/><path class="cls-2" d="M437.89,182.59c-3.75-.59-1.61,2.33-1.61,2.33,7.56,10.64,3.84,20.06,3.84,20.06,5.41-1.18,8.45-7.12,8.45-7.12C456.19,182.7,441.64,183.18,437.89,182.59Z"/><path class="cls-2" d="M245.26,192.56s-.15,9.88,6.55,2.9,13-11.33,11.19-19.22-23.29-4.71-23.29-4.71S247.28,178.44,245.26,192.56Z"/><path class="cls-2" d="M266.76,187.68,253,197.61s-4.92,3.7,1.22,5.92,18.56,5.75,21.06,4.53-1.15-16.37-3.21-20.29S266.76,187.68,266.76,187.68Z"/><path class="cls-2" d="M241.43,208.1s-8.76,12.83-11.2,16.48,0,5.54,0,5.54,10.87,6.31,13.67,6.5,3.37,1.53,6.81-4.27-4.17-20.4-6-24.52S241.43,208.1,241.43,208.1Z"/><path class="cls-2" d="M239.11,206.39s7.3-6.07,1.93-17.2-8.27-10.56-8.27-10.56-10.34,7.62-9.21,32.66C223.56,211.29,229.86,216.32,239.11,206.39Z"/><path class="cls-1" d="M209.15,325.69l-10.34,48c-1.35,6.63-3.6,11.69-11.23,11.69-3.94,0-8.88-2-6.75-11.69l10.34-48H158.25L151.14,359l6.21,42c6.28,3.88,15.4,5.78,27.19,5.78,33.15,0,42.69-11.57,47.3-33.59l10.23-47.52Z"/><path class="cls-1" d="M318.84,328.24l.54-2.55H250.26l-4.48,20.78h13.49l-12.36,58.31h33l12.36-58.31h12.19A51.21,51.21,0,0,1,318.84,328.24Z"/><path class="cls-1" d="M390.05,339.66h-37.6L356,323.73c-35.06,1.3-49,25.19-49,47.91,0,18,10.68,35.16,43.15,35.16,26.92,0,43.62-11.91,50-29.54H381.71Zm-38.55,47c-7.64,0-9.55-6.62-9.55-13.48,0-10,4.38-30.33,16.62-30.33,7.19,0,9.89,5.05,9.89,12.47C368.46,366.13,364.64,386.69,351.5,386.69Z"/><polygon class="cls-2" points="426.4 310.07 432.33 283.34 410.75 283.34 404.82 310.07 367.22 310.07 362.43 331.65 400.03 331.65 391.69 369.25 413.28 369.25 421.62 331.65 459.21 331.65 464 310.07 426.4 310.07"/><path class="cls-3" d="M111.73,346.47c-2.59,7.19-7.3,18.32-10.56,25.73h13c-.56-6.29-1.24-18.31-1.69-25.73Z"/><path class="cls-3" d="M182.49,291.93c0-1.91-1.13-3-3.18-3s-4.17,1.7-4.74,5.44h7.64A10.54,10.54,0,0,0,182.49,291.93Z"/><path class="cls-3" d="M102.87,291.93c0-1.91-1.13-3-3.18-3s-4.17,1.7-4.74,5.44h7.64A10.54,10.54,0,0,0,102.87,291.93Z"/><path class="cls-1" d="M94.54,325.69,51.62,404.78H85.44l5.84-11.91h24.83l1,11.91h32.69l-11.68-79.09Zm6.63,46.51c3.26-7.41,8-18.54,10.56-25.73h.78c.45,7.42,1.13,19.44,1.69,25.73Z"/><path class="cls-2" d="M64.58,308.38a16.48,16.48,0,0,1,4.84.81,25,25,0,0,1-1.13-7.51,26.77,26.77,0,0,1,8.77-20.21l.06-.28h.27a29.85,29.85,0,0,1,15.41-6.64l1.36-6.44H44.76L42,281.19H56.35l-7.64,36C53,311.61,58.49,308.28,64.58,308.38Z"/><path class="cls-2" d="M73.33,301.68c0,8.2,4.17,17.17,21.41,17.17,8.38,0,14.15-1.88,18.09-4.6l1.88-8.89H101.53a4.67,4.67,0,0,1-4.88,3.25c-2.12,0-3.46-1.2-3.46-4.1a14,14,0,0,1,.14-1.63h21.9L117.52,292c.42-2,.8-3.79,1.13-5.4-3.32-4.55-9.63-7.48-19.53-7.48C81.38,279.14,73.33,289.74,73.33,301.68Zm26.36-12.79c2,0,3.18,1.13,3.18,3a10.54,10.54,0,0,1-.28,2.4H95C95.52,290.59,97.57,288.89,99.69,288.89Z"/><path class="cls-2" d="M157.64,279.14c-7.77,0-11.8,3.81-14.27,8a42.45,42.45,0,0,0,.84-7H125c-.28,2.12-1.13,6.29-2.54,12.93l-5.23,24.81h20.49l2.83-13.57c1.55-7.21,6.71-8,13.14-7.71Z"/><path class="cls-2" d="M195.9,302.88,198.41,291c.24-1.17.46-2.21.65-3.16-3.05-5.22-9.58-8.66-20.32-8.66-7.24,0-12.87,1.77-17,4.67l-4.08,18-4.21-.18-.51,0v.07c0,8.2,4.17,17.17,21.41,17.17,9.32,0,15.4-2.32,19.35-5.54l1.67-7.95H181.15a4.67,4.67,0,0,1-4.88,3.25c-2.12,0-3.46-1.2-3.46-4.1a14,14,0,0,1,.14-1.63Zm-16.59-14c2.05,0,3.18,1.13,3.18,3a10.54,10.54,0,0,1-.28,2.4h-7.64C175.14,290.59,177.19,288.89,179.31,288.89Z"/><path class="cls-2" d="M237.9,279.14a18.49,18.49,0,0,0-12.51,4.38c.14-1.13.28-2.9.28-3.39H205.74c-.28,1.62-.78,4-2.4,11.87l-5.44,25.87h20.49l4.52-21.42c.92-4.52,2.55-5.37,4-5.37,1.84,0,2.33,1.2,1.7,4.31l-4.74,22.48h20.5l4.94-23.54C251.32,285,247.72,279.14,237.9,279.14Z"/></svg>