<svg id="Layer_1" data-name="Layer 1" xmlns="http://www.w3.org/2000/svg" viewBox="0 0 1500 500"><defs><style>.cls-1{fill:#c42127;}.cls-2{fill:#231f20;}.cls-3{fill:none;}</style></defs><title>-logo-Artboard 2SVG</title><path class="cls-1" d="M945,222.91l-15.27,70.88c-2,9.8-5.32,17.27-16.6,17.27-5.81,0-13.12-3-10-17.27l15.27-70.88H869.76l-10.5,49.21,9.17,62.1c9.28,5.73,22.75,8.54,40.18,8.54,49,0,63.07-17.1,69.88-49.63l15.1-70.22Z"/><path class="cls-1" d="M1107,226.69l.79-3.78H1005.7l-6.61,30.71H1019l-18.26,86.15h48.8l18.26-86.15h18A75.49,75.49,0,0,1,1107,226.69Z"/><path class="cls-1" d="M1212.24,243.56h-55.55l5.22-23.54c-51.8,1.93-72.37,37.21-72.37,70.79,0,26.55,15.77,51.95,63.74,51.95,39.78,0,64.46-17.6,73.93-43.65h-27.29Zm-57,69.49c-11.29,0-14.11-9.79-14.11-19.92,0-14.77,6.47-44.82,24.56-44.82,10.63,0,14.61,7.47,14.61,18.43C1180.34,282.67,1174.7,313.05,1155.28,313.05Z"/><polygon class="cls-2" points="1265.95 199.84 1274.71 160.34 1242.82 160.34 1234.06 199.84 1178.51 199.84 1171.43 231.73 1226.99 231.73 1214.67 287.28 1246.56 287.28 1258.88 231.73 1314.43 231.73 1321.5 199.84 1265.95 199.84"/><path class="cls-1" d="M747.92,211.71c-24.09-23.87-39.81,9.62-39.81,9.62-15.8-16.31-107.73-2.07-107.73-2.07l-8.78-17.94-30-4.21S689.15,183.55,686.07,169s-4.87-21.36-80.81-26.53-131.06,6.38-131.06,6.38-31.43,4.83-59.59,18.64S367.75,185,367.75,185c-37.38,6.46-74.15,15.47-100.2,25.42S241,235.05,241,235.05c-19.62,18-7.42,59.1-7.42,59.1-7.7,8.73,5.2,14.91,5.2,14.91-6.64,5-5,11.62-5,11.62,47.38,27.32,171.53,25.44,171.53,25.44h79.53c32.19,0,86.55-18.58,86.55-18.58l44.88-12c44.87-12,113.5-15,129.43-17.84S772,235.58,747.92,211.71ZM683,166s3,4.82-6.11,4.82-113.32,3.46-113.32,3.46S671,143.52,683,166Zm-113.76-8.06L533,176.09,460,187.7l-51.2-3.44S463.38,143.06,569.24,157.89ZM248.6,255.14l8.71-8a6.17,6.17,0,0,1,4.28-.7l50.54,8.75-4.56,6.9,13.15-3.69s11.73,4.56,48.68,1.14,36.49-2,56.66-19.19c0,0,.75,21.68-70.69,24.85S332.06,272.52,248.6,255.14Zm93.51-15.85s106.39-26.39,87.67-7.22l-29.29,1.67s-14,23.52-16.9,1.75l-20.41,2.73s-10.7,16-12.2.58Zm1.47,85.38s82.34-16.41,93.9-3.84Zm-7.37-103.85,81.67-15.13q8-1.66,16.67-3.09l-16.67,3.09C364.82,216.76,335.34,235,335.34,235c-26.69,6.81-73.75-5.09-73.75-5.09,21.57-25.9,115.76-41.75,115.76-41.75,11.29,1,62.3,3.94,80,5,2,.08,4.05.19,6.07.35l-6.07-.35C396.17,190.73,336.21,220.82,336.21,220.82ZM496,339c-24,.73-43.17-22.31-42.46-51,.7-28.25,20.39-50.82,43.7-50.82,23,0,41.39,22,41.39,49.55C538.65,314.67,519.7,338.27,496,339Zm.74-120.07L548,199.49s45.56,17,32.68,22.5l-42.05,6.82,2.71,14.84S525.14,216.76,496.76,218.92ZM555.2,298.5s13.83-15.91,59.9-24.69,67.06-16.53,82.9.8Zm183.69-3.63c-11.46.34-20.55-18.55-20.21-41.52.32-22.24,9.41-39.78,20.23-39.78s19.61,17.28,19.91,39.2C759.13,275.39,750.25,294.53,738.89,294.87Z"/><path class="cls-2" d="M734.84,238.05c4.43-6.67,3.68-10.65,3.68-10.65s.41-4.08-6.09-3.64-4,4.29-4,4.29c3.06,8.35-2.09,18-2.09,18C728.83,247.24,730.41,244.73,734.84,238.05Z"/><path class="cls-2" d="M745.49,237c-7.6,10-16.33,13.4-16.33,13.4-5,3.25,8.1,4.06,14.23,4.81s5.87-3.45,5.87-3.45C748.67,236.84,745.49,237,745.49,237Z"/><path class="cls-2" d="M731.17,259.64c-4.76-.75-2,2.95-2,2.95,9.6,13.52,4.87,25.47,4.87,25.47,6.87-1.49,10.74-9,10.74-9C754.41,259.78,735.93,260.38,731.17,259.64Z"/><path class="cls-2" d="M486.55,272.29s-.19,12.55,8.31,3.69,16.48-14.39,14.22-24.4-29.58-6-29.58-6S489.12,254.37,486.55,272.29Z"/><path class="cls-2" d="M513.86,266.1l-17.43,12.61s-6.25,4.7,1.56,7.52,23.56,7.3,26.73,5.75-1.46-20.79-4.07-25.76S513.86,266.1,513.86,266.1Z"/><path class="cls-2" d="M481.69,292S470.57,308.32,467.47,313s0,7.05,0,7.05,13.8,8,17.35,8.25,4.28,1.94,8.65-5.43-5.29-25.89-7.6-31.13S481.69,292,481.69,292Z"/><path class="cls-2" d="M478.74,289.86s9.27-7.7,2.45-21.84-10.5-13.42-10.5-13.42-13.13,9.69-11.69,41.49C459,296.09,467,302.47,478.74,289.86Z"/><path class="cls-3" d="M801,253.62c-3.82,10.63-10.79,27.06-15.6,38h19.25c-.83-9.3-1.82-27.06-2.49-38Z"/><path class="cls-3" d="M905.57,173c0-2.82-1.67-4.49-4.7-4.49s-6.16,2.5-7,8h11.27A15.17,15.17,0,0,0,905.57,173Z"/><path class="cls-3" d="M787.93,173c0-2.82-1.67-4.49-4.7-4.49s-6.16,2.5-7,8h11.27A15.17,15.17,0,0,0,787.93,173Z"/><path class="cls-1" d="M775.63,222.91l-8.76,16.14a89.43,89.43,0,0,1,1.65,17.19c0,31.35-16,56.33-35.88,56.33a23.88,23.88,0,0,1-5.33-.61l-15.1,27.81h50l8.63-17.59H807.5L809,339.77h48.3L840,222.91Zm9.79,68.73c4.81-11,11.78-27.39,15.6-38h1.16c.67,11,1.66,28.72,2.49,38Z"/><path class="cls-2" d="M731.36,197.33a24.49,24.49,0,0,1,7.16,1.21,36.77,36.77,0,0,1-1.68-11.09,39.55,39.55,0,0,1,13-29.87l.09-.42h.39c5.67-4.86,13.22-8.4,22.77-9.8l2-9.51h-73L698,157.16h21.2l-11.28,53.2C714.21,202.11,722.37,197.19,731.36,197.33Z"/><path class="cls-2" d="M744.29,187.45c0,12.11,6.16,25.37,31.63,25.37,12.39,0,20.9-2.78,26.73-6.81l2.77-13.14H786c-1.36,3.45-3.66,4.81-7.21,4.81-3.13,0-5.11-1.78-5.11-6.06a19.34,19.34,0,0,1,.21-2.4h32.35l3.39-16.05c.62-2.93,1.18-5.6,1.67-8-4.9-6.73-14.23-11.05-28.85-11.05C756.19,154.14,744.29,169.8,744.29,187.45Zm38.94-18.9c3,0,4.7,1.67,4.7,4.49a15.17,15.17,0,0,1-.42,3.55H776.24C777.07,171.05,780.1,168.55,783.23,168.55Z"/><path class="cls-2" d="M868.86,154.14c-11.49,0-17.44,5.63-21.09,11.8A61.84,61.84,0,0,0,849,155.6h-28.4c-.42,3.13-1.67,9.29-3.76,19.11l-7.73,36.65h30.28l4.18-20.05c2.3-10.65,9.92-11.8,19.42-11.38Z"/><path class="cls-2" d="M925.39,189.22l3.7-17.61,1-4.67c-4.52-7.72-14.16-12.8-30-12.8-10.7,0-19,2.61-25.11,6.9l-6,26.59-6.21-.27-.76,0s0,.07,0,.11c0,12.11,6.16,25.37,31.64,25.37,13.76,0,22.76-3.43,28.58-8.19l2.48-11.76h-21c-1.36,3.45-3.66,4.81-7.21,4.81-3.13,0-5.12-1.78-5.12-6.06a21.48,21.48,0,0,1,.21-2.4Zm-24.52-20.67c3,0,4.7,1.67,4.7,4.49a15.17,15.17,0,0,1-.42,3.55H893.88C894.71,171.05,897.74,168.55,900.87,168.55Z"/><path class="cls-2" d="M987.43,154.14A27.34,27.34,0,0,0,969,160.61c.21-1.67.42-4.28.42-5H939.92c-.41,2.4-1.14,6-3.55,17.54l-8,38.22h30.28l6.68-31.64c1.35-6.68,3.76-7.94,6-7.94,2.71,0,3.45,1.78,2.51,6.37l-7,33.21H997l7.31-34.77C1007.27,162.8,1002,154.14,987.43,154.14Z"/></svg>