<svg id="Calque_1" data-name="Calque 1" xmlns="http://www.w3.org/2000/svg" viewBox="0 0 765.08 444.1"><defs><style>.cls-1{fill:#424242;}.cls-2{fill:#c32127;fill-rule:evenodd;}.cls-3{fill:none;}.cls-4{fill:#fff;}</style></defs><title>-logo-Plan de travail 1 copySVG</title><rect class="cls-1" x="11.76" y="5.41" width="741.56" height="421.75"/><path class="cls-2" d="M523.49,355.56a28.34,28.34,0,0,0-23.33,12.24L487.3,386.44A28.35,28.35,0,0,1,464,398.69H302.14a28.34,28.34,0,0,1-23-11.77L265,367.33a28.33,28.33,0,0,0-23-11.77H11.76v71.6H753.32v-71.6Z"/><rect class="cls-3" x="11.76" y="5.41" width="741.56" height="421.75" rx="28.35" ry="28.35"/><path class="cls-3" d="M397.94,183.07c-17.68,3.37-23,9.47-23,9.47l54.79-9.16C423.66,176.73,415.61,179.71,397.94,183.07Z"/><path class="cls-3" d="M337.41,152.12l2.26.13C338.92,152.2,338.16,152.15,337.41,152.12Z"/><path class="cls-3" d="M322.27,156.93l6.39-1.18C326.44,156.11,324.31,156.51,322.27,156.93Z"/><path class="cls-3" d="M352.72,169c-8.94,0-16.5,8.66-16.76,19.5-.28,11,7.07,19.86,16.29,19.58S368.6,198.74,368.6,188C368.6,177.44,361.54,169,352.72,169Zm4.54,5.54c.86,3.84-2.19,6-5.46,9.36s-3.19-1.41-3.19-1.41c1-6.88-2.7-10.25-2.7-10.25S356.39,170.7,357.26,174.54ZM338,191.62c-.55-12.2,4.49-15.92,4.49-15.92s1.41-.28,4,5.15-.94,8.38-.94,8.38C341.11,194.07,338,191.62,338,191.62Zm13.23,10.25c-1.68,2.83-2,2.18-3.32,2.09s-6.66-3.17-6.66-3.17-1.19-.93,0-2.7,5.46-8,5.46-8,.72-2.14,1.6-.13S353,199.05,351.27,201.87Zm12-11.83c-1.22.6-7.27-1.13-10.26-2.21s-.6-2.88-.6-2.88l6.69-4.84s1.61-1.86,2.61,0S364.47,189.44,363.26,190Z"/><path class="cls-3" d="M384.74,163.19c4.94-2.12-12.54-8.64-12.54-8.64L352.53,162c10.89-.83,17.11,9.49,17.11,9.49l-1-5.7Z"/><path class="cls-3" d="M293.76,202.58l36-1.47C325.35,196.29,293.76,202.58,293.76,202.58Z"/><path class="cls-3" d="M306.72,150.22s-36.14,6.08-44.42,16c0,0,18.06,4.56,28.3,1.95,0,0,11.31-7,31.67-11.26l-31.34,5.81s23-11.55,46.48-10.62C330.62,151.73,311.05,150.59,306.72,150.22Z"/><path class="cls-3" d="M464.24,144.41a1.6,1.6,0,0,0-1.8-1.73c-1.2,0-2.36,1-2.68,3.09h4.32A5.93,5.93,0,0,0,464.24,144.41Z"/><path class="cls-3" d="M421.64,143.54c3.51,0,2.35-1.85,2.35-1.85-4.61-8.61-45.83,3.17-45.83,3.17S418.13,143.54,421.64,143.54Z"/><path class="cls-3" d="M509.38,144.41a1.61,1.61,0,0,0-1.81-1.73c-1.2,0-2.36,1-2.68,3.09h4.33A5.93,5.93,0,0,0,509.38,144.41Z"/><path class="cls-3" d="M366.43,145.58l13.91-7c-40.61-5.7-61.58,10.11-61.58,10.11L338.41,150Z"/><path class="cls-3" d="M301.28,169.42l7.83-1c1.12,8.35,6.49-.67,6.49-.67l11.23-.65c7.18-7.35-33.63,2.77-33.63,2.77l3.4-.18C297.17,175.55,301.28,169.42,301.28,169.42Z"/><path class="cls-3" d="M325.4,170.21c-7.73,6.61-7.56,6-21.73,7.36s-18.68-.43-18.68-.43l-5,1.41,1.74-2.64-19.39-3.36a2.38,2.38,0,0,0-1.64.27l-3.34,3.09c32,6.67,13.56,5.05,41,3.84S325.4,170.21,325.4,170.21Z"/><path class="cls-3" d="M453.08,175c-.12-8.41-3.53-15-7.65-15s-7.63,6.72-7.76,15.26c-.13,8.81,3.36,16.06,7.76,15.93S453.19,183.68,453.08,175Zm-12.46-2.56s2-3.72.81-6.93c0,0-1-1.48,1.52-1.64s2.34,1.39,2.34,1.39.28,1.53-1.42,4.09S441.57,172.88,440.62,172.44Zm1.07,1.65a16.18,16.18,0,0,0,6.27-5.15s1.22-.06,1.45,5.66c0,0,.1,1.62-2.25,1.33S439.78,175.33,441.69,174.09Zm1.86,14.45s1.81-4.59-1.87-9.78c0,0-1-1.41.79-1.13s8.91.06,5.2,7.44C447.67,185.07,446.19,188,443.55,188.54Z"/><path class="cls-3" d="M609.19,173.29c-6.94,0-9.42,11.52-9.42,17.19,0,3.89,1.08,7.64,5.41,7.64,7.45,0,9.62-11.65,9.62-17.76C614.8,176.15,613.27,173.29,609.19,173.29Z"/><path class="cls-4" d="M518.63,190.74c-.76,3.75-2,6.62-6.37,6.62-2.23,0-5-1.15-3.82-6.62l5.86-27.2H495.64l-4,18.88,3.52,23.83c3.56,2.2,8.73,3.27,15.41,3.27,18.79,0,24.2-6.56,26.81-19l5.8-26.94H524.49Z"/><path class="cls-4" d="M586.67,165l.3-1.45H547.79l-2.53,11.78h7.64l-7,33.06h18.72l7-33.06h6.91A29,29,0,0,1,586.67,165Z"/><path class="cls-4" d="M627,171.46H605.72l2-9c-19.88.74-27.77,14.28-27.77,27.16,0,10.19,6,19.93,24.46,19.93,15.26,0,24.73-6.75,28.36-16.74H622.31Zm-21.86,26.66c-4.33,0-5.41-3.75-5.41-7.64,0-5.67,2.48-17.19,9.42-17.19,4.08,0,5.61,2.86,5.61,7.07C614.8,186.47,612.63,198.12,605.18,198.12Z"/><polygon class="cls-4" points="647.64 154.69 651 139.53 638.77 139.53 635.41 154.69 614.09 154.69 611.38 166.92 632.69 166.92 627.97 188.24 640.2 188.24 644.93 166.92 666.24 166.92 668.96 154.69 647.64 154.69"/><path class="cls-4" d="M339.67,152.25h0Z"/><path class="cls-4" d="M448.89,159.24c-9.24-9.16-15.27,3.7-15.27,3.7-6.06-6.26-41.34-.8-41.34-.8l-3.36-6.88-11.5-1.62s48.92-5.2,47.74-10.78-1.86-8.2-31-10.18-50.29,2.45-50.29,2.45A90.38,90.38,0,0,0,321,142.28c-10.81,5.3-18,6.72-18,6.72-14.34,2.47-28.44,5.93-38.44,9.75s-10.18,9.45-10.18,9.45c-7.53,6.9-2.85,22.67-2.85,22.67-2.95,3.35,2,5.72,2,5.72a4.49,4.49,0,0,0-1.93,4.46c18.17,10.48,65.81,9.76,65.81,9.76H348c12.35,0,33.21-7.13,33.21-7.13l17.21-4.59c17.22-4.59,43.55-5.76,49.66-6.84S458.14,168.4,448.89,159.24ZM424,141.69s1.16,1.85-2.35,1.85-43.48,1.32-43.48,1.32S419.38,133.08,424,141.69Zm-43.65-3.09-13.91,7-28,4.45-19.65-1.32S339.73,132.9,380.34,138.6Zm-123,37.31,3.34-3.09a2.38,2.38,0,0,1,1.64-.27l19.39,3.36L280,178.55l5-1.41s4.5,1.75,18.68.43,14-.75,21.73-7.36c0,0,.29,8.32-27.12,9.54S289.34,182.58,257.32,175.91Zm35.88-6.09s40.81-10.12,33.63-2.77l-11.23.65s-5.37,9-6.49.67l-7.83,1s-4.11,6.13-4.68.22Zm.56,32.76s31.59-6.29,36-1.47Zm-2.83-39.84,31.34-5.81c2-.42,4.17-.82,6.39-1.18l-6.39,1.18c-20.36,4.25-31.67,11.26-31.67,11.26-10.24,2.61-28.3-1.95-28.3-1.95,8.28-9.94,44.42-16,44.42-16,4.33.37,23.9,1.51,30.69,1.9.75,0,1.51.08,2.26.13h0l-2.26-.13C313.94,151.19,290.93,162.74,290.93,162.74Zm61.32,45.34c-9.22.28-16.57-8.56-16.29-19.58.26-10.84,7.82-19.5,16.76-19.5s15.88,8.44,15.88,19C368.6,198.74,361.33,207.8,352.25,208.08Zm.28-46.07,19.67-7.46s17.48,6.52,12.54,8.64L368.6,165.8l1,5.7S363.42,161.18,352.53,162ZM375,192.54s5.31-6.1,23-9.47,25.72-6.34,31.8.31Zm62.72-17.32c.13-8.54,3.61-15.26,7.76-15.26s7.53,6.63,7.65,15c.11,8.68-3.29,16-7.65,16.15S437.54,184,437.67,175.22Z"/><path class="cls-4" d="M443.87,169.35c1.7-2.56,1.42-4.09,1.42-4.09s.15-1.56-2.34-1.39-1.52,1.64-1.52,1.64c1.17,3.21-.81,6.93-.81,6.93C441.57,172.88,442.17,171.91,443.87,169.35Z"/><path class="cls-4" d="M447.16,175.93c2.35.29,2.25-1.33,2.25-1.33-.23-5.72-1.45-5.66-1.45-5.66a16.18,16.18,0,0,1-6.27,5.15C439.78,175.33,444.8,175.64,447.16,175.93Z"/><path class="cls-4" d="M442.47,177.63c-1.83-.28-.79,1.13-.79,1.13,3.68,5.19,1.87,9.78,1.87,9.78,2.64-.58,4.12-3.47,4.12-3.47C451.38,177.69,444.29,177.92,442.47,177.63Z"/><path class="cls-4" d="M348.61,182.49s-.07,4.81,3.19,1.41,6.32-5.52,5.46-9.36-11.35-2.3-11.35-2.3S349.6,175.61,348.61,182.49Z"/><path class="cls-4" d="M359.09,180.11,352.4,185s-2.39,1.8.6,2.88,9,2.81,10.26,2.21-.56-8-1.56-9.88S359.09,180.11,359.09,180.11Z"/><path class="cls-4" d="M346.75,190.06s-4.27,6.25-5.46,8,0,2.7,0,2.7,5.3,3.07,6.66,3.17,1.64.74,3.32-2.09-2-9.93-2.92-11.94S346.75,190.06,346.75,190.06Z"/><path class="cls-4" d="M346.56,180.85c-2.62-5.43-4-5.15-4-5.15s-5,3.72-4.49,15.92c0,0,3.07,2.45,7.58-2.39C345.62,189.23,349.17,186.27,346.56,180.85Z"/><path class="cls-4" d="M459.52,163.54l-3.36,6.19a34.36,34.36,0,0,1,.64,6.6c0,12-6.15,21.61-13.77,21.61a8.84,8.84,0,0,1-2-.24l-5.79,10.68h19.17l3.31-6.75h14.08l.57,6.75h18.53l-6.62-44.84Zm3.76,26.37c1.85-4.21,4.52-10.51,6-14.59h.45c.26,4.21.64,11,1,14.59Z"/><path class="cls-4" d="M433.55,158.73c2.41-3.17,5.54-5.06,9-5a9,9,0,0,1,2.74.46,14.37,14.37,0,0,1-.64-4.26,15.15,15.15,0,0,1,5-11.45l0-.16h.15a16.94,16.94,0,0,1,8.74-3.77l.76-3.65h-28l-1.56,7.42h8.13Z"/><path class="cls-4" d="M447.5,149.93c0,4.65,2.36,9.74,12.14,9.74,4.75,0,8-1.07,10.25-2.61l1.06-5h-7.47a2.64,2.64,0,0,1-2.76,1.84c-1.2,0-2-.68-2-2.32a8.16,8.16,0,0,1,.08-.93h12.42l1.3-6.15c.24-1.13.45-2.15.64-3.06-1.88-2.59-5.46-4.25-11.07-4.25C452.06,137.15,447.5,143.16,447.5,149.93Zm14.94-7.25a1.6,1.6,0,0,1,1.8,1.73,5.93,5.93,0,0,1-.16,1.36h-4.32C460.08,143.64,461.24,142.68,462.44,142.68Z"/><path class="cls-4" d="M484,159.11l1.6-7.69c.88-4.09,3.8-4.53,7.45-4.37l2.24-9.9a8.69,8.69,0,0,0-8.09,4.53,23.87,23.87,0,0,0,.48-4h-10.9c-.16,1.2-.64,3.56-1.44,7.33l-3,14.06Z"/><path class="cls-4" d="M492.63,149.89v0c0,4.65,2.36,9.74,12.14,9.74,5.28,0,8.73-1.32,11-3.14l.94-4.51h-8.06a2.65,2.65,0,0,1-2.77,1.84c-1.2,0-2-.68-2-2.32a8.16,8.16,0,0,1,.08-.93h13l1.42-6.75.37-1.79c-1.73-3-5.43-4.92-11.52-4.92a16.48,16.48,0,0,0-9.63,2.65L495.31,150l-2.39-.11Zm14.94-7.21a1.61,1.61,0,0,1,1.81,1.73,5.93,5.93,0,0,1-.16,1.36h-4.33C505.21,143.64,506.37,142.68,507.57,142.68Z"/><path class="cls-4" d="M540.79,137.15a10.52,10.52,0,0,0-7.1,2.49c.08-.64.16-1.64.16-1.92H522.56c-.16.92-.44,2.28-1.36,6.73l-3.09,14.66h11.62L532.29,147c.52-2.56,1.44-3.05,2.29-3.05,1,0,1.32.69,1,2.45l-2.69,12.74h11.62l2.81-13.34C548.4,140.48,546.35,137.15,540.79,137.15Z"/><path class="cls-4" d="M512.28,395.69v-6.07h-1.64v-1.41l1.72-.11.22-3.08h1.56v3.08h3v1.52h-3v6.11c0,1.34.43,2.12,1.7,2.12a3.63,3.63,0,0,0,1.25-.3l.36,1.4a6.67,6.67,0,0,1-2,.41C513.07,399.36,512.28,397.88,512.28,395.69Z"/><path class="cls-4" d="M518.46,393.61c0-3.57,2.41-5.78,4.94-5.78,2.8,0,4.38,2,4.38,5.16a6.24,6.24,0,0,1-.08,1.05h-7.4c.13,2.33,1.55,3.84,3.65,3.84a4.78,4.78,0,0,0,2.73-.88l.67,1.22a6.5,6.5,0,0,1-3.63,1.14C520.79,399.36,518.46,397.22,518.46,393.61Zm7.68-.9c0-2.2-1-3.4-2.71-3.4-1.54,0-2.92,1.24-3.15,3.4Z"/><path class="cls-4" d="M530.48,388.1H532l.16,2h.06a3.79,3.79,0,0,1,3.13-2.28,2.63,2.63,0,0,1,1.17.23l-.35,1.63a3,3,0,0,0-1.06-.18c-.93,0-2,.67-2.78,2.53v7h-1.86Z"/><path class="cls-4" d="M537.28,393.61c0-3.57,2.41-5.78,4.94-5.78,2.8,0,4.39,2,4.39,5.16a6.13,6.13,0,0,1-.09,1.05h-7.4c.14,2.33,1.56,3.84,3.65,3.84a4.81,4.81,0,0,0,2.74-.88l.66,1.22a6.44,6.44,0,0,1-3.63,1.14C539.62,399.36,537.28,397.22,537.28,393.61Zm7.68-.9c0-2.2-1-3.4-2.7-3.4-1.55,0-2.93,1.24-3.15,3.4Z"/><path class="cls-4" d="M549.3,388.1h1.54l.16,1.59h.06a5.22,5.22,0,0,1,3.68-1.86c2.32,0,3.36,1.5,3.36,4.3v7h-1.86v-6.72c0-2.05-.62-2.92-2.07-2.92-1.13,0-1.91.57-3,1.68v8H549.3Z"/><path class="cls-4" d="M561.27,398a1.35,1.35,0,1,1,1.35,1.41A1.36,1.36,0,0,1,561.27,398Z"/><path class="cls-4" d="M566.26,393.61c0-3.56,2.25-5.78,4.75-5.78a4.47,4.47,0,0,1,3.08,1.28l-.08-1.89V383h1.86v16.1h-1.54l-.15-1.3h-.06a4.86,4.86,0,0,1-3.34,1.57C568,399.36,566.26,397.27,566.26,393.61ZM574,396.3v-5.76a3.89,3.89,0,0,0-2.68-1.14c-1.75,0-3.15,1.69-3.15,4.2s1.09,4.2,3,4.2A3.81,3.81,0,0,0,574,396.3Z"/><path class="cls-4" d="M578.76,393.61c0-3.66,2.4-5.78,5.09-5.78s5.09,2.12,5.09,5.78-2.39,5.75-5.09,5.75S578.76,397.25,578.76,393.61Zm8.26,0c0-2.52-1.28-4.23-3.17-4.23s-3.17,1.71-3.17,4.23,1.28,4.2,3.17,4.2S587,396.13,587,393.61Z"/><path class="cls-4" d="M591,393.61c0-3.66,2.4-5.78,5.09-5.78s5.09,2.12,5.09,5.78-2.4,5.75-5.09,5.75S591,397.25,591,393.61Zm8.26,0c0-2.52-1.28-4.23-3.17-4.23s-3.17,1.71-3.17,4.23,1.28,4.2,3.17,4.2S599.28,396.13,599.28,393.61Z"/><path class="cls-4" d="M603.28,393.61c0-3.57,2.41-5.78,4.93-5.78,2.81,0,4.39,2,4.39,5.16a6.13,6.13,0,0,1-.09,1.05h-7.4c.14,2.33,1.56,3.84,3.65,3.84a4.81,4.81,0,0,0,2.74-.88l.66,1.22a6.44,6.44,0,0,1-3.62,1.14C605.61,399.36,603.28,397.22,603.28,393.61Zm7.68-.9c0-2.2-1-3.4-2.71-3.4-1.55,0-2.93,1.24-3.15,3.4Z"/><path class="cls-4" d="M615.29,396.88V383h1.86v14c0,.57.25.79.52.79a1.82,1.82,0,0,0,.41,0l.25,1.42a3.09,3.09,0,0,1-1.07.17C615.87,399.36,615.29,398.47,615.29,396.88Z"/><path class="cls-4" d="M620.35,394.49c0-6,4.37-10,9.43-10,4.56,0,7.42,3,7.42,7.5,0,3.95-2.46,6-4.52,6a2.1,2.1,0,0,1-2.34-1.72h-.05a3.85,3.85,0,0,1-2.74,1.55c-1.53,0-2.73-1.14-2.73-3.19,0-2.41,1.71-5.25,4.34-5.25a2,2,0,0,1,1.82,1.1h0l.24-.92h1.24l-.89,4.52c-.44,1.79,0,2.64,1.24,2.64,1.41,0,3-1.73,3-4.67,0-3.64-2.15-6.31-6.26-6.31s-7.91,3.43-7.91,8.7c0,4.42,2.88,6.92,6.73,6.92a7.38,7.38,0,0,0,3.66-1l.5,1.1a8.27,8.27,0,0,1-4.31,1.16C623.88,402.6,620.35,399.77,620.35,394.49Zm9.64.71.64-3.59a1.59,1.59,0,0,0-1.44-.95c-1.78,0-2.87,2.14-2.87,3.84,0,1.45.67,2,1.58,2A2.94,2.94,0,0,0,630,395.2Z"/><path class="cls-4" d="M639.37,401.2a3.07,3.07,0,0,1,1.61-2.48v-.09a2,2,0,0,1-1-1.8,2.61,2.61,0,0,1,1.2-2v-.09a3.84,3.84,0,0,1-1.42-2.95,3.9,3.9,0,0,1,4.12-3.92,4.49,4.49,0,0,1,1.55.27h3.84v1.44H647a3.16,3.16,0,0,1,.9,2.26,3.75,3.75,0,0,1-4,3.8,3.88,3.88,0,0,1-1.63-.37,1.6,1.6,0,0,0-.7,1.3c0,.7.45,1.19,1.92,1.19h2.14c2.55,0,3.84.8,3.84,2.63,0,2-2.16,3.8-5.56,3.8C641.22,404.15,639.37,403.09,639.37,401.2Zm8.28-.58c0-1-.78-1.36-2.22-1.36h-1.89a6.2,6.2,0,0,1-1.43-.16,2.27,2.27,0,0,0-1.12,1.84c0,1.18,1.19,1.92,3.18,1.92S647.65,401.77,647.65,400.62Zm-1.41-8.87a2.35,2.35,0,1,0-4.67,0,2.35,2.35,0,1,0,4.67,0Z"/><path class="cls-4" d="M651.6,388.1h1.53l.16,1.6h.06a4.88,4.88,0,0,1,3.42-1.87,2.9,2.9,0,0,1,3,2.1c1.14-1.24,2.29-2.1,3.63-2.1,2.25,0,3.34,1.5,3.34,4.3v7h-1.86v-6.72c0-2.05-.65-2.92-2-2.92-.85,0-1.73.55-2.75,1.68v8h-1.86v-6.72c0-2.05-.64-2.92-2-2.92a4.05,4.05,0,0,0-2.75,1.68v8H651.6Z"/><path class="cls-4" d="M669.65,396.24c0-2.4,2.06-3.59,6.75-4.1,0-1.41-.48-2.78-2.27-2.78a6.12,6.12,0,0,0-3.28,1.18l-.72-1.27a8,8,0,0,1,4.31-1.44c2.68,0,3.81,1.79,3.81,4.52v6.74h-1.53l-.16-1.31h-.06a5.84,5.84,0,0,1-3.63,1.58A3,3,0,0,1,669.65,396.24Zm6.75.17v-3.05c-3.69.44-4.93,1.34-4.93,2.75,0,1.25.85,1.75,1.93,1.75A4.52,4.52,0,0,0,676.4,396.41Z"/><path class="cls-4" d="M681.39,384.65a1.29,1.29,0,0,1,2.57,0,1.29,1.29,0,0,1-2.57,0Zm.34,3.45h1.86v11h-1.86Z"/><path class="cls-4" d="M687.3,396.88V383h1.86v14c0,.57.24.79.51.79a1.82,1.82,0,0,0,.41,0l.25,1.42a3.09,3.09,0,0,1-1.07.17C687.87,399.36,687.3,398.47,687.3,396.88Z"/><path class="cls-4" d="M692.68,398a1.35,1.35,0,1,1,1.34,1.41A1.35,1.35,0,0,1,692.68,398Z"/><path class="cls-4" d="M697.63,393.61c0-3.66,2.47-5.78,5.28-5.78a4.67,4.67,0,0,1,3.22,1.29l-1,1.23a3.18,3.18,0,0,0-2.18-1c-2,0-3.45,1.71-3.45,4.23s1.38,4.2,3.4,4.2a4,4,0,0,0,2.58-1.09l.8,1.24a5.34,5.34,0,0,1-3.55,1.4C699.86,399.36,697.63,397.25,697.63,393.61Z"/><path class="cls-4" d="M707.45,393.61c0-3.66,2.4-5.78,5.09-5.78s5.09,2.12,5.09,5.78-2.4,5.75-5.09,5.75S707.45,397.25,707.45,393.61Zm8.26,0c0-2.52-1.28-4.23-3.17-4.23s-3.17,1.71-3.17,4.23,1.28,4.2,3.17,4.2S715.71,396.13,715.71,393.61Z"/><path class="cls-4" d="M720.52,388.1h1.54l.16,1.6h.06a4.88,4.88,0,0,1,3.42-1.87,2.9,2.9,0,0,1,3,2.1c1.14-1.24,2.28-2.1,3.62-2.1,2.26,0,3.34,1.5,3.34,4.3v7h-1.86v-6.72c0-2.05-.64-2.92-2-2.92a4,4,0,0,0-2.75,1.68v8h-1.86v-6.72c0-2.05-.65-2.92-2-2.92a4.07,4.07,0,0,0-2.75,1.68v8h-1.86Z"/><path class="cls-4" d="M251.08,232.47h3.33l2.86,11.14c.42,1.83.78,3.57,1.15,5.38h.16c.42-1.81.83-3.58,1.31-5.38l3-11.14h3.18l3,11.14c.48,1.83.9,3.57,1.34,5.38h.16c.42-1.81.78-3.55,1.2-5.38l2.81-11.14h3.11l-5.17,19.29h-4l-2.78-10.37c-.47-1.83-.84-3.6-1.31-5.56h-.16c-.41,2-.8,3.79-1.32,5.61l-2.7,10.32h-3.82Z"/><path class="cls-4" d="M279.59,232.47h3.33l2.87,11.14c.41,1.83.77,3.57,1.14,5.38h.16c.42-1.81.84-3.58,1.31-5.38l3-11.14h3.19l3,11.14c.47,1.83.89,3.57,1.34,5.38h.16c.41-1.81.77-3.55,1.19-5.38l2.81-11.14h3.11L301,251.76h-4l-2.78-10.37c-.47-1.83-.84-3.6-1.3-5.56h-.16c-.42,2-.81,3.79-1.33,5.61l-2.7,10.32H285Z"/><path class="cls-4" d="M308.1,232.47h3.33l2.87,11.14c.42,1.83.77,3.57,1.14,5.38h.16c.42-1.81.84-3.58,1.31-5.38l3-11.14h3.19l3,11.14c.47,1.83.89,3.57,1.34,5.38h.16c.42-1.81.77-3.55,1.19-5.38l2.81-11.14h3.12l-5.18,19.29h-4l-2.78-10.37c-.47-1.83-.84-3.6-1.3-5.56h-.16c-.42,2-.81,3.79-1.33,5.61l-2.7,10.32h-3.82Z"/><path class="cls-4" d="M336.61,249.76a2.37,2.37,0,1,1,2.37,2.47A2.39,2.39,0,0,1,336.61,249.76Z"/><path class="cls-4" d="M345.93,245.79V235.13h-2.88v-2.48l3-.18.39-5.41h2.73v5.41h5.23v2.66h-5.23v10.72c0,2.36.76,3.72,3,3.72a6.42,6.42,0,0,0,2.2-.51l.63,2.46a11.51,11.51,0,0,1-3.58.71C347.32,252.23,345.93,249.63,345.93,245.79Z"/><path class="cls-4" d="M356.78,242.14c0-6.28,4.23-10.15,8.67-10.15,4.93,0,7.7,3.53,7.7,9a10.84,10.84,0,0,1-.15,1.86H360c.23,4.08,2.73,6.73,6.41,6.73a8.39,8.39,0,0,0,4.8-1.54l1.17,2.14a11.32,11.32,0,0,1-6.37,2C360.88,252.23,356.78,248.47,356.78,242.14Zm13.49-1.58c0-3.87-1.74-6-4.76-6-2.71,0-5.13,2.18-5.53,6Z"/><path class="cls-4" d="M377.89,232.47h2.69l.28,3.51H381c1.34-2.45,3.31-4,5.48-4a4.43,4.43,0,0,1,2.06.4l-.61,2.86a5.36,5.36,0,0,0-1.87-.32c-1.63,0-3.57,1.18-4.88,4.44v12.39h-3.26Z"/><path class="cls-4" d="M389.84,242.14c0-6.28,4.23-10.15,8.67-10.15,4.92,0,7.7,3.53,7.7,9a10.84,10.84,0,0,1-.15,1.86h-13c.23,4.08,2.73,6.73,6.41,6.73a8.39,8.39,0,0,0,4.8-1.54l1.17,2.14a11.35,11.35,0,0,1-6.38,2C393.93,252.23,389.84,248.47,389.84,242.14Zm13.49-1.58c0-3.87-1.74-6-4.76-6-2.71,0-5.14,2.18-5.53,6Z"/><path class="cls-4" d="M410.94,232.47h2.7l.28,2.78H414c1.83-1.81,3.82-3.26,6.47-3.26,4.06,0,5.89,2.62,5.89,7.54v12.23h-3.27V240c0-3.6-1.08-5.14-3.64-5.14-2,0-3.34,1-5.27,3v14h-3.27Z"/><path class="cls-4" d="M431.44,246.75c0-4.2,3.63-6.3,11.85-7.2,0-2.48-.83-4.87-4-4.87a10.63,10.63,0,0,0-5.75,2.07l-1.28-2.24a14.1,14.1,0,0,1,7.58-2.52c4.71,0,6.7,3.13,6.7,7.93v11.84h-2.7l-.27-2.31h-.11a10.25,10.25,0,0,1-6.38,2.78C433.87,252.23,431.44,250.23,431.44,246.75Zm11.85.3v-5.36c-6.46.78-8.65,2.36-8.65,4.83,0,2.19,1.49,3.08,3.38,3.08S441.42,248.7,443.29,247.05Z"/><path class="cls-4" d="M452.4,244.69V232.47h3.26v11.8c0,3.59,1.09,5.13,3.64,5.13,2,0,3.34-1,5.17-3.25V232.47h3.26v19.29H465l-.28-3h-.11c-1.79,2.1-3.71,3.49-6.36,3.49C454.22,252.23,452.4,249.61,452.4,244.69Z"/><path class="cls-4" d="M474.82,245.79V235.13H472v-2.48l3-.18.4-5.41h2.72v5.41h5.23v2.66h-5.23v10.72c0,2.36.76,3.72,3,3.72a6.37,6.37,0,0,0,2.19-.51l.63,2.46a11.51,11.51,0,0,1-3.58.71C476.21,252.23,474.82,249.63,474.82,245.79Z"/><path class="cls-4" d="M485.68,242.14c0-6.44,4.2-10.15,8.93-10.15s8.94,3.71,8.94,10.15-4.21,10.09-8.94,10.09S485.68,248.52,485.68,242.14Zm14.5,0c0-4.42-2.25-7.43-5.57-7.43s-5.56,3-5.56,7.43,2.25,7.38,5.56,7.38S500.18,246.56,500.18,242.14Z"/><path class="cls-4" d="M508.63,232.47h2.7l.27,2.22h.11a10.17,10.17,0,0,1,6.15-2.7c5,0,7.65,3.87,7.65,9.83,0,6.58-4,10.41-8.35,10.41a8.75,8.75,0,0,1-5.35-2.23l.09,3.37v6.53h-3.27Zm13.51,9.38c0-4.26-1.46-7.11-5.09-7.11-1.63,0-3.28.89-5.15,2.63v10.11a7.51,7.51,0,0,0,4.69,2C519.79,249.49,522.14,246.61,522.14,241.85Z"/><path class="cls-4" d="M530.49,247.88v-24.4h3.26v24.64c0,1,.44,1.4.92,1.4a2.81,2.81,0,0,0,.71-.08l.44,2.49a5.17,5.17,0,0,1-1.88.3C531.5,252.23,530.49,250.67,530.49,247.88Z"/><path class="cls-4" d="M540.35,244.69V232.47h3.27v11.8c0,3.59,1.08,5.13,3.64,5.13,2,0,3.34-1,5.16-3.25V232.47h3.27v19.29H553l-.28-3h-.1c-1.79,2.1-3.72,3.49-6.37,3.49C542.18,252.23,540.35,249.61,540.35,244.69Z"/><path class="cls-4" d="M560.06,249.56l1.61-2.15a8.7,8.7,0,0,0,5.7,2.28c2.53,0,3.79-1.35,3.79-3,0-2-2.28-2.86-4.42-3.65-2.7-1-5.75-2.32-5.75-5.57,0-3.09,2.47-5.48,6.65-5.48a9.72,9.72,0,0,1,6,2.17l-1.56,2.09a7.27,7.27,0,0,0-4.4-1.72c-2.43,0-3.55,1.3-3.55,2.77,0,1.83,2.1,2.53,4.28,3.35,2.79,1,5.89,2.18,5.89,5.85,0,3.13-2.49,5.73-7,5.73A11.62,11.62,0,0,1,560.06,249.56Z"/><path class="cls-4" d="M578.16,249.76a2.37,2.37,0,1,1,2.36,2.47A2.38,2.38,0,0,1,578.16,249.76Z"/><path class="cls-4" d="M586.86,242.14c0-6.44,4.34-10.15,9.28-10.15a8.1,8.1,0,0,1,5.64,2.26l-1.67,2.16a5.6,5.6,0,0,0-3.83-1.7c-3.49,0-6,3-6,7.43s2.42,7.38,6,7.38a6.91,6.91,0,0,0,4.52-1.93l1.42,2.19a9.34,9.34,0,0,1-6.24,2.45C590.77,252.23,586.86,248.52,586.86,242.14Z"/><path class="cls-4" d="M604.1,242.14c0-6.44,4.21-10.15,8.94-10.15S622,235.7,622,242.14s-4.21,10.09-8.94,10.09S604.1,248.52,604.1,242.14Zm14.51,0c0-4.42-2.25-7.43-5.57-7.43s-5.56,3-5.56,7.43,2.24,7.38,5.56,7.38S618.61,246.56,618.61,242.14Z"/><path class="cls-4" d="M627.06,232.47h2.7l.27,2.79h.11c1.69-1.82,3.71-3.27,6-3.27a5.08,5.08,0,0,1,5.32,3.68c2-2.17,4-3.68,6.36-3.68,4,0,5.87,2.62,5.87,7.54v12.23h-3.26V240c0-3.6-1.14-5.14-3.59-5.14-1.5,0-3.05,1-4.84,3v14h-3.26V240c0-3.6-1.14-5.14-3.59-5.14-1.44,0-3,1-4.83,3v14h-3.27Z"/><path class="cls-4" d="M271.43,340.9h1.87V347h6.81V340.9H282v14.66h-1.87v-6.89H273.3v6.89h-1.87Z"/><path class="cls-4" d="M285.14,352.74c0-2.36,2-3.55,6.66-4.05,0-1.4-.46-2.74-2.24-2.74a6,6,0,0,0-3.23,1.16l-.72-1.26a8,8,0,0,1,4.26-1.41c2.65,0,3.77,1.76,3.77,4.46v6.66h-1.52l-.15-1.3h-.06a5.79,5.79,0,0,1-3.59,1.56A2.94,2.94,0,0,1,285.14,352.74Zm6.66.17v-3c-3.63.43-4.86,1.32-4.86,2.71,0,1.23.83,1.73,1.9,1.73A4.47,4.47,0,0,0,291.8,352.91Z"/><path class="cls-4" d="M296,360l.36-1.46a3,3,0,0,0,.83.16c1.22,0,2-1,2.45-2.33l.24-.8-4.35-10.88h1.89l2.22,6c.34.94.7,2.06,1.05,3.06h.09c.31-1,.62-2.1.91-3.06l1.94-6h1.8l-4.09,11.75c-.77,2.15-1.89,3.78-4.06,3.78A3.63,3.63,0,0,1,296,360Z"/><path class="cls-4" d="M307.51,344.7h2.11l2.14,5.09c.32.9.66,1.78,1,2.65h.09c.34-.87.7-1.75,1-2.65l2.06-5.09H318v10.86h-1.67v-4.88c0-1,.13-2.61.2-3.74h-.08c-.32.86-.7,1.76-1,2.57l-2.05,5h-1.22l-2.1-5c-.31-.81-.69-1.73-1-2.57H309c.07,1.13.2,2.78.2,3.74v4.88h-1.65Z"/><path class="cls-4" d="M325.43,348.18c0-4.7,2.58-7.54,6.26-7.54s6.26,2.85,6.26,7.54-2.58,7.64-6.26,7.64S325.43,352.87,325.43,348.18Zm10.6,0c0-3.65-1.72-5.9-4.34-5.9s-4.33,2.25-4.33,5.9,1.72,6,4.33,6S336,351.83,336,348.18Z"/><path class="cls-4" d="M342.65,349.89l-3.28-5.19h2l1.45,2.39c.34.59.7,1.21,1.07,1.8H344c.33-.59.66-1.21,1-1.8l1.33-2.39h1.91l-3.28,5.39,3.55,5.47h-2l-1.6-2.53c-.38-.65-.78-1.32-1.18-1.94h-.09c-.37.62-.73,1.28-1.1,1.94L341,355.56h-1.91Z"/><path class="cls-4" d="M350.59,344.7h1.52l.15,1.26h.06a5.7,5.7,0,0,1,3.46-1.52c2.81,0,4.31,2.17,4.31,5.53,0,3.69-2.22,5.85-4.7,5.85a4.89,4.89,0,0,1-3-1.25l.05,1.89v3.67h-1.84Zm7.6,5.28c0-2.39-.82-4-2.86-4a4.47,4.47,0,0,0-2.9,1.48v5.69a4.2,4.2,0,0,0,2.64,1.13C356.87,354.28,358.19,352.66,358.19,350Z"/><path class="cls-4" d="M363,344.7h1.79v4.52c0,1.15-.09,2.61-.17,4h.08c.41-.67,1-1.66,1.44-2.32l4.11-6.2h1.7v10.86h-1.79V351c0-1.15.1-2.6.18-4h-.09c-.4.67-1,1.67-1.43,2.32l-4.11,6.2H363Z"/><path class="cls-4" d="M376,359.4h-1.58l-.19-4.18v-1.16h11v1.16L385,359.4h-1.58v-3.84H376Zm5.77-13.2h-3.46l-.42,3.67c-.46,4-1.54,5-2.71,5.27l-.41-1.08c.6-.32,1.08-1.05,1.51-4.55l.58-4.81h6.75V355h-1.84Z"/><path class="cls-4" d="M386.65,350.14c0-3.62,2.45-5.7,5.22-5.7a4.55,4.55,0,0,1,3.18,1.27l-.94,1.21A3.16,3.16,0,0,0,392,346c-2,0-3.4,1.69-3.4,4.17s1.36,4.16,3.35,4.16a3.89,3.89,0,0,0,2.55-1.09l.8,1.23a5.29,5.29,0,0,1-3.51,1.38C388.85,355.82,386.65,353.74,386.65,350.14Z"/><path class="cls-4" d="M397.63,344.7h1.83v4.47h3.05l4.12,6.39h-2l-3-4.89h-2.13v4.89h-1.83Zm3.58,5.26,1.42-3.2c.83-1.91,1.67-2.32,2.84-2.32a1.64,1.64,0,0,1,.65.12l-.33,1.72a1,1,0,0,0-.36-.06c-.56,0-1,.2-1.57,1.49l-1.09,2.55Z"/><path class="cls-4" d="M408.75,344.7h1.79v4.52c0,1.15-.1,2.61-.17,4h.08c.4-.67,1-1.66,1.44-2.32l4.1-6.2h1.71v10.86h-1.79V351c0-1.15.09-2.6.18-4H416l-1.43,2.32-4.11,6.2h-1.71Z"/><path class="cls-4" d="M425.18,349c0-7.34,2.66-8.49,6.8-9.11a6.61,6.61,0,0,0,2.25-.61l.37,1.67a5.48,5.48,0,0,1-2.24.69c-4,.61-5.41.92-5.41,7.71,0,3.14,1.12,5,3.33,5,1.68,0,2.88-1.66,2.88-4.12,0-2.24-1-3.65-2.92-3.65a4.11,4.11,0,0,0-3.32,2l-.07-1.37a4.79,4.79,0,0,1,3.86-2c2.57,0,4.35,1.91,4.35,5.08,0,3.45-2.13,5.64-4.76,5.64C427.05,355.82,425.18,353.35,425.18,349Z"/><path class="cls-4" d="M438,344.7h1.51l.16,1.26h.06a5.67,5.67,0,0,1,3.46-1.52c2.8,0,4.3,2.17,4.3,5.53,0,3.69-2.22,5.85-4.7,5.85a4.93,4.93,0,0,1-3-1.25l.05,1.89v3.67H438Zm7.59,5.28c0-2.39-.81-4-2.86-4a4.5,4.5,0,0,0-2.9,1.48v5.69a4.22,4.22,0,0,0,2.64,1.13C444.24,354.28,445.56,352.66,445.56,350Z"/><path class="cls-4" d="M449.75,354.43a1.33,1.33,0,1,1,2.66,0,1.33,1.33,0,1,1-2.66,0Z"/><path class="cls-4" d="M460.08,354h3.26V343.54h-2.59v-1.18a8.58,8.58,0,0,0,3-1h1.4V354h2.94v1.53h-8Z"/><path class="cls-4" d="M471.18,354h3.26V343.54h-2.6v-1.18a8.51,8.51,0,0,0,3-1h1.4V354h2.94v1.53h-8Z"/><path class="cls-4" d="M488.59,342.9H481.5v-1.58h9.17v1.12c-3.37,4.31-4.07,7.56-4.3,13.12h-1.9C484.71,350.19,485.78,346.8,488.59,342.9Z"/><path class="cls-4" d="M288.16,375c0-4.7,2.58-7.54,6.26-7.54s6.26,2.85,6.26,7.54-2.58,7.64-6.26,7.64S288.16,379.66,288.16,375Zm10.6,0c0-3.65-1.72-5.91-4.34-5.91s-4.34,2.26-4.34,5.91,1.72,6,4.34,6S298.76,378.62,298.76,375Z"/><path class="cls-4" d="M305.38,376.68l-3.28-5.19h2l1.45,2.39c.33.59.7,1.2,1.06,1.8h.09c.33-.6.65-1.21,1-1.8l1.33-2.39h1.91l-3.28,5.38,3.55,5.48h-2l-1.59-2.53c-.38-.65-.78-1.32-1.18-1.94h-.09c-.38.62-.73,1.28-1.1,1.94l-1.47,2.53h-1.92Z"/><path class="cls-4" d="M313.32,371.49h1.52l.15,1.26h.06a5.7,5.7,0,0,1,3.46-1.52c2.81,0,4.31,2.17,4.31,5.52,0,3.7-2.23,5.86-4.7,5.86a4.94,4.94,0,0,1-3-1.25l.05,1.89v3.67h-1.84Zm7.6,5.28c0-2.39-.82-4-2.86-4a4.47,4.47,0,0,0-2.9,1.48v5.69a4.26,4.26,0,0,0,2.64,1.13C319.59,381.07,320.92,379.45,320.92,376.77Z"/><path class="cls-4" d="M325.7,371.49h1.79V376c0,1.15-.09,2.61-.17,4h.08c.41-.67,1-1.66,1.44-2.32l4.1-6.2h1.71v10.86h-1.79v-4.52c0-1.15.1-2.6.18-4H333c-.4.67-1,1.67-1.43,2.32l-4.11,6.2H325.7Z"/><path class="cls-4" d="M338.68,386.19H337.1l-.19-4.18v-1.16h11V382l-.19,4.18h-1.59v-3.84h-7.41Zm5.77-13.2H341l-.42,3.67c-.46,4-1.54,5-2.71,5.26l-.41-1.07c.6-.33,1.08-1.05,1.51-4.55l.58-4.81h6.75v10.3h-1.84Z"/><path class="cls-4" d="M349.86,385.06a3,3,0,0,0,2-2.77l-.2-1.65.9,1.34a1.13,1.13,0,0,1-.93.38,1.24,1.24,0,0,1-1.33-1.28,1.28,1.28,0,0,1,1.36-1.28c1,0,1.56.82,1.56,2.16a4.43,4.43,0,0,1-2.93,4.18Z"/><path class="cls-4" d="M360.83,367.69h2.25l2.8,7.83c.36,1,.69,2,1.05,3.06H367c.35-1,.66-2.06,1-3.06l2.77-7.83h2.25v14.66h-1.73v-8.07c0-1.28.14-3,.23-4.33h-.09l-1.16,3.34-2.76,7.58h-1.23l-2.78-7.58L362.37,370h-.09c.1,1.29.24,3.05.24,4.33v8.07h-1.69Z"/><path class="cls-4" d="M376.21,379.53c0-2.37,2-3.55,6.67-4,0-1.4-.47-2.74-2.25-2.74a6,6,0,0,0-3.23,1.16l-.72-1.26a8,8,0,0,1,4.26-1.41c2.65,0,3.77,1.76,3.77,4.46v6.66h-1.52l-.15-1.3H383a5.77,5.77,0,0,1-3.59,1.56A2.94,2.94,0,0,1,376.21,379.53Zm6.67.17v-3c-3.64.44-4.87,1.33-4.87,2.72,0,1.23.84,1.73,1.9,1.73A4.51,4.51,0,0,0,382.88,379.7Z"/><path class="cls-4" d="M388.14,371.49H390V376h3l4.12,6.39h-2l-3-4.9H390v4.9h-1.84Zm3.58,5.26,1.42-3.2c.84-1.91,1.67-2.32,2.85-2.32a1.59,1.59,0,0,1,.64.12l-.32,1.72A.88.88,0,0,0,396,373c-.57,0-1,.2-1.57,1.49l-1.1,2.55Z"/><path class="cls-4" d="M398.08,376.93c0-3.53,2.38-5.7,4.88-5.7,2.77,0,4.33,2,4.33,5.09a5.16,5.16,0,0,1-.09,1h-7.3c.13,2.3,1.53,3.79,3.6,3.79a4.75,4.75,0,0,0,2.7-.87l.66,1.21a6.4,6.4,0,0,1-3.58,1.12C400.38,382.61,398.08,380.5,398.08,376.93Zm7.59-.88c0-2.18-1-3.36-2.68-3.36-1.52,0-2.89,1.22-3.11,3.36Z"/><path class="cls-4" d="M410.32,386.19h-1.58l-.19-4.18v-1.16h11V382l-.19,4.18h-1.58v-3.84h-7.42Zm5.77-13.2h-3.46l-.42,3.67c-.45,4-1.54,5-2.71,5.26l-.41-1.07c.6-.33,1.09-1.05,1.51-4.55l.58-4.81h6.75v10.3h-1.84Z"/><path class="cls-4" d="M421,376.93c0-3.62,2.37-5.7,5-5.7s5,2.08,5,5.7-2.37,5.68-5,5.68S421,380.53,421,376.93Zm8.16,0c0-2.48-1.26-4.18-3.13-4.18s-3.13,1.7-3.13,4.18,1.26,4.15,3.13,4.15S429.18,379.42,429.18,376.93Z"/><path class="cls-4" d="M433.93,371.49h1.84v4.41H441v-4.41h1.83v10.86H441v-4.83h-5.22v4.83h-1.84Z"/><path class="cls-4" d="M446.48,371.49h1.79V376c0,1.15-.09,2.61-.17,4h.08c.41-.67,1-1.66,1.44-2.32l4.1-6.2h1.71v10.86h-1.79v-4.52c0-1.15.1-2.6.18-4h-.09c-.4.67-1,1.67-1.43,2.32l-4.11,6.2h-1.71Z"/><path class="cls-4" d="M456.38,386.91l.36-1.41a3.36,3.36,0,0,0,1,.2c1.08,0,1.34-.82,1.34-2.14V371.49h1.83v12.08c0,2.22-.81,3.62-3,3.62A4.4,4.4,0,0,1,456.38,386.91Zm2.39-18.83a1.27,1.27,0,1,1,1.27,1.18A1.19,1.19,0,0,1,458.77,368.08Z"/><path class="cls-4" d="M463.93,379.53c0-2.37,2-3.55,6.67-4,0-1.4-.47-2.74-2.24-2.74a6,6,0,0,0-3.24,1.16l-.72-1.26a8,8,0,0,1,4.27-1.41c2.64,0,3.76,1.76,3.76,4.46v6.66h-1.51l-.16-1.3h-.06a5.75,5.75,0,0,1-3.59,1.56A3,3,0,0,1,463.93,379.53Zm6.67.17v-3c-3.64.44-4.87,1.33-4.87,2.72,0,1.23.84,1.73,1.9,1.73A4.49,4.49,0,0,0,470.6,379.7Z"/><path class="cls-4" d="M46.75,393.33h-4.1v-1.4h4.1v-4.41h1.49v4.41h4.1v1.4h-4.1v4.41H46.75Z"/><path class="cls-4" d="M53.71,398.33l.93-1.22a4.92,4.92,0,0,0,3.68,1.7c1.75,0,3-1,3-2.64s-1.18-2.86-4.59-2.86v-1.42c3.05,0,4.08-1.18,4.08-2.69a2.22,2.22,0,0,0-2.49-2.28,4.37,4.37,0,0,0-3.07,1.46l-1-1.18a6,6,0,0,1,4.14-1.79c2.51,0,4.31,1.33,4.31,3.65a3.55,3.55,0,0,1-2.62,3.43v.09a3.74,3.74,0,0,1,3.13,3.66c0,2.57-2.12,4.12-4.76,4.12A6.08,6.08,0,0,1,53.71,398.33Z"/><path class="cls-4" d="M65.26,396.4A4.57,4.57,0,0,1,68,392.52v-.09a4.06,4.06,0,0,1-2-3.33c0-2.21,1.76-3.69,4.08-3.69a3.73,3.73,0,0,1,4.08,3.83,4.71,4.71,0,0,1-2,3.48v.09c1.28.76,2.5,1.77,2.5,3.7,0,2.16-1.86,3.85-4.64,3.85S65.26,398.69,65.26,396.4Zm7.6.06c0-1.87-1.82-2.53-3.9-3.37a3.87,3.87,0,0,0-2,3.14A2.86,2.86,0,0,0,70,399,2.56,2.56,0,0,0,72.86,396.46Zm-.34-7.12a2.39,2.39,0,0,0-2.5-2.55,2.22,2.22,0,0,0-2.34,2.31c0,1.72,1.6,2.45,3.32,3.13A3.88,3.88,0,0,0,72.52,389.34Z"/><path class="cls-4" d="M76.74,398.84l1-1.16a3.16,3.16,0,0,0,2.37,1.13c2.08,0,3.81-1.64,3.81-6.48,0-3.54-1.15-5.46-3.22-5.46-1.41,0-2.5,1.26-2.5,3.16s.88,3.06,2.66,3.06a3.92,3.92,0,0,0,3.1-2l.07,1.47a4.63,4.63,0,0,1-3.48,2c-2.49,0-4.11-1.5-4.11-4.46a4.35,4.35,0,0,1,4.26-4.62c2.84,0,5,2.3,5,6.92,0,5.8-2.62,8-5.5,8A4.58,4.58,0,0,1,76.74,398.84Z"/><path class="cls-4" d="M93.18,393.81a19,19,0,0,1,3-10.27l1.16.54a19.55,19.55,0,0,0,0,19.45l-1.16.54A19,19,0,0,1,93.18,393.81Z"/><path class="cls-4" d="M99.18,392.83c0-4.83,1.74-7.42,4.62-7.42s4.62,2.6,4.62,7.42-1.74,7.53-4.62,7.53S99.18,397.66,99.18,392.83Zm7.43,0c0-4.23-1.14-5.93-2.81-5.93s-2.82,1.7-2.82,5.93,1.14,6,2.82,6S106.61,397.05,106.61,392.83Z"/><path class="cls-4" d="M110.28,403.53a19.55,19.55,0,0,0,0-19.45l1.15-.54a19.17,19.17,0,0,1,0,20.53Z"/><path class="cls-4" d="M129,387.27h-7.18v-1.59h9.29v1.14c-3.41,4.36-4.12,7.65-4.36,13.27h-1.92C125,394.66,126.12,391.23,129,387.27Z"/><path class="cls-4" d="M132.57,398.38l.92-1.21a4.89,4.89,0,0,0,3.64,1.64,3.09,3.09,0,0,0,3.15-3.28,2.88,2.88,0,0,0-3.06-3.16,4,4,0,0,0-2.47.87l-1-.62.48-6.94h7.21v1.59h-5.58l-.38,4.28a4.38,4.38,0,0,1,2.21-.59,4.15,4.15,0,0,1,4.47,4.51,4.72,4.72,0,0,1-4.86,4.89A6.31,6.31,0,0,1,132.57,398.38Z"/><path class="cls-4" d="M148.67,399c4.33-4.32,6.78-6.91,6.78-9.26a2.54,2.54,0,0,0-2.73-2.81,4.17,4.17,0,0,0-3.06,1.73l-1.08-1a5.63,5.63,0,0,1,4.37-2.19,4,4,0,0,1,4.33,4.24c0,2.7-2.49,5.39-5.89,9,.78-.07,1.68-.13,2.43-.13H158v1.6h-9.31Z"/><path class="cls-4" d="M165.87,390.43c0-.76.07-2,.11-2.76h-.09c-.36.69-.77,1.32-1.18,2l-3.36,4.93h8.25v1.48H159.4v-1.23l6.17-9.2h2.06v14.41h-1.76Z"/><path class="cls-4" d="M171.4,398.84l1-1.16a3.16,3.16,0,0,0,2.37,1.13c2.08,0,3.81-1.64,3.81-6.48,0-3.54-1.15-5.46-3.21-5.46-1.42,0-2.51,1.26-2.51,3.16s.88,3.06,2.67,3.06a3.92,3.92,0,0,0,3.09-2l.07,1.47a4.62,4.62,0,0,1-3.48,2c-2.49,0-4.11-1.5-4.11-4.46a4.35,4.35,0,0,1,4.26-4.62c2.84,0,5,2.3,5,6.92,0,5.8-2.62,8-5.5,8A4.58,4.58,0,0,1,171.4,398.84Z"/><path class="cls-4" d="M182.41,393.71h5.18v1.42h-5.18Z"/><path class="cls-4" d="M189.5,398.84l1-1.16a3.16,3.16,0,0,0,2.37,1.13c2.08,0,3.81-1.64,3.81-6.48,0-3.54-1.15-5.46-3.22-5.46-1.42,0-2.51,1.26-2.51,3.16s.88,3.06,2.67,3.06a4,4,0,0,0,3.1-2l.06,1.47a4.6,4.6,0,0,1-3.47,2c-2.5,0-4.11-1.5-4.11-4.46a4.34,4.34,0,0,1,4.25-4.62c2.85,0,5,2.3,5,6.92,0,5.8-2.62,8-5.49,8A4.59,4.59,0,0,1,189.5,398.84Z"/><path class="cls-4" d="M207.74,387.27h-7.17v-1.59h9.29v1.14c-3.42,4.36-4.12,7.65-4.36,13.27h-1.92C203.82,394.66,204.91,391.23,207.74,387.27Z"/><path class="cls-4" d="M212,398.84l1-1.16a3.16,3.16,0,0,0,2.37,1.13c2.08,0,3.81-1.64,3.81-6.48,0-3.54-1.15-5.46-3.22-5.46-1.41,0-2.5,1.26-2.5,3.16s.88,3.06,2.66,3.06a3.92,3.92,0,0,0,3.1-2l.07,1.47a4.63,4.63,0,0,1-3.48,2c-2.49,0-4.11-1.5-4.11-4.46a4.35,4.35,0,0,1,4.26-4.62c2.84,0,5,2.3,5,6.92,0,5.8-2.62,8-5.5,8A4.58,4.58,0,0,1,212,398.84Z"/><rect class="cls-4" x="37.4" y="34.2" width="123" height="123"/><rect x="42.32" y="39.12" width="4.51" height="4.51"/><rect x="46.83" y="39.12" width="4.51" height="4.51"/><rect x="51.34" y="39.12" width="4.51" height="4.51"/><rect x="55.85" y="39.12" width="4.51" height="4.51"/><rect x="60.36" y="39.12" width="4.51" height="4.51"/><rect x="64.87" y="39.12" width="4.51" height="4.51"/><rect x="69.38" y="39.12" width="4.51" height="4.51"/><rect x="82.91" y="39.12" width="4.51" height="4.51"/><rect x="100.95" y="39.12" width="4.51" height="4.51"/><rect x="114.48" y="39.12" width="4.51" height="4.51"/><rect x="123.5" y="39.12" width="4.51" height="4.51"/><rect x="128.01" y="39.12" width="4.51" height="4.51"/><rect x="132.52" y="39.12" width="4.51" height="4.51"/><rect x="137.03" y="39.12" width="4.51" height="4.51"/><rect x="141.54" y="39.12" width="4.51" height="4.51"/><rect x="146.05" y="39.12" width="4.51" height="4.51"/><rect x="150.56" y="39.12" width="4.51" height="4.51"/><rect x="42.32" y="43.63" width="4.51" height="4.51"/><rect x="69.38" y="43.63" width="4.51" height="4.51"/><rect x="78.4" y="43.63" width="4.51" height="4.51"/><rect x="82.91" y="43.63" width="4.51" height="4.51"/><rect x="91.93" y="43.63" width="4.51" height="4.51"/><rect x="96.44" y="43.63" width="4.51" height="4.51"/><rect x="105.46" y="43.63" width="4.51" height="4.51"/><rect x="109.97" y="43.63" width="4.51" height="4.51"/><rect x="123.5" y="43.63" width="4.51" height="4.51"/><rect x="150.56" y="43.63" width="4.51" height="4.51"/><rect x="42.32" y="48.14" width="4.51" height="4.51"/><rect x="51.34" y="48.14" width="4.51" height="4.51"/><rect x="55.85" y="48.14" width="4.51" height="4.51"/><rect x="60.36" y="48.14" width="4.51" height="4.51"/><rect x="69.38" y="48.14" width="4.51" height="4.51"/><rect x="82.91" y="48.14" width="4.51" height="4.51"/><rect x="87.42" y="48.14" width="4.51" height="4.51"/><rect x="91.93" y="48.14" width="4.51" height="4.51"/><rect x="109.97" y="48.14" width="4.51" height="4.51"/><rect x="123.5" y="48.14" width="4.51" height="4.51"/><rect x="132.52" y="48.14" width="4.51" height="4.51"/><rect x="137.03" y="48.14" width="4.51" height="4.51"/><rect x="141.54" y="48.14" width="4.51" height="4.51"/><rect x="150.56" y="48.14" width="4.51" height="4.51"/><rect x="42.32" y="52.65" width="4.51" height="4.51"/><rect x="51.34" y="52.65" width="4.51" height="4.51"/><rect x="55.85" y="52.65" width="4.51" height="4.51"/><rect x="60.36" y="52.65" width="4.51" height="4.51"/><rect x="69.38" y="52.65" width="4.51" height="4.51"/><rect x="78.4" y="52.65" width="4.51" height="4.51"/><rect x="82.91" y="52.65" width="4.51" height="4.51"/><rect x="91.93" y="52.65" width="4.51" height="4.51"/><rect x="100.95" y="52.65" width="4.51" height="4.51"/><rect x="105.46" y="52.65" width="4.51" height="4.51"/><rect x="109.97" y="52.65" width="4.51" height="4.51"/><rect x="114.48" y="52.65" width="4.51" height="4.51"/><rect x="123.5" y="52.65" width="4.51" height="4.51"/><rect x="132.52" y="52.65" width="4.51" height="4.51"/><rect x="137.03" y="52.65" width="4.51" height="4.51"/><rect x="141.54" y="52.65" width="4.51" height="4.51"/><rect x="150.56" y="52.65" width="4.51" height="4.51"/><rect x="42.32" y="57.16" width="4.51" height="4.51"/><rect x="51.34" y="57.16" width="4.51" height="4.51"/><rect x="55.85" y="57.16" width="4.51" height="4.51"/><rect x="60.36" y="57.16" width="4.51" height="4.51"/><rect x="69.38" y="57.16" width="4.51" height="4.51"/><rect x="87.42" y="57.16" width="4.51" height="4.51"/><rect x="96.44" y="57.16" width="4.51" height="4.51"/><rect x="105.46" y="57.16" width="4.51" height="4.51"/><rect x="114.48" y="57.16" width="4.51" height="4.51"/><rect x="123.5" y="57.16" width="4.51" height="4.51"/><rect x="132.52" y="57.16" width="4.51" height="4.51"/><rect x="137.03" y="57.16" width="4.51" height="4.51"/><rect x="141.54" y="57.16" width="4.51" height="4.51"/><rect x="150.56" y="57.16" width="4.51" height="4.51"/><rect x="42.32" y="61.67" width="4.51" height="4.51"/><rect x="69.38" y="61.67" width="4.51" height="4.51"/><rect x="78.4" y="61.67" width="4.51" height="4.51"/><rect x="87.42" y="61.67" width="4.51" height="4.51"/><rect x="105.46" y="61.67" width="4.51" height="4.51"/><rect x="109.97" y="61.67" width="4.51" height="4.51"/><rect x="114.48" y="61.67" width="4.51" height="4.51"/><rect x="123.5" y="61.67" width="4.51" height="4.51"/><rect x="150.56" y="61.67" width="4.51" height="4.51"/><rect x="42.32" y="66.18" width="4.51" height="4.51"/><rect x="46.83" y="66.18" width="4.51" height="4.51"/><rect x="51.34" y="66.18" width="4.51" height="4.51"/><rect x="55.85" y="66.18" width="4.51" height="4.51"/><rect x="60.36" y="66.18" width="4.51" height="4.51"/><rect x="64.87" y="66.18" width="4.51" height="4.51"/><rect x="69.38" y="66.18" width="4.51" height="4.51"/><rect x="78.4" y="66.18" width="4.51" height="4.51"/><rect x="87.42" y="66.18" width="4.51" height="4.51"/><rect x="96.44" y="66.18" width="4.51" height="4.51"/><rect x="105.46" y="66.18" width="4.51" height="4.51"/><rect x="114.48" y="66.18" width="4.51" height="4.51"/><rect x="123.5" y="66.18" width="4.51" height="4.51"/><rect x="128.01" y="66.18" width="4.51" height="4.51"/><rect x="132.52" y="66.18" width="4.51" height="4.51"/><rect x="137.03" y="66.18" width="4.51" height="4.51"/><rect x="141.54" y="66.18" width="4.51" height="4.51"/><rect x="146.05" y="66.18" width="4.51" height="4.51"/><rect x="150.56" y="66.18" width="4.51" height="4.51"/><rect x="96.44" y="70.69" width="4.51" height="4.51"/><rect x="105.46" y="70.69" width="4.51" height="4.51"/><rect x="114.48" y="70.69" width="4.51" height="4.51"/><rect x="42.32" y="75.2" width="4.51" height="4.51"/><rect x="46.83" y="75.2" width="4.51" height="4.51"/><rect x="51.34" y="75.2" width="4.51" height="4.51"/><rect x="55.85" y="75.2" width="4.51" height="4.51"/><rect x="60.36" y="75.2" width="4.51" height="4.51"/><rect x="69.38" y="75.2" width="4.51" height="4.51"/><rect x="73.89" y="75.2" width="4.51" height="4.51"/><rect x="78.4" y="75.2" width="4.51" height="4.51"/><rect x="82.91" y="75.2" width="4.51" height="4.51"/><rect x="87.42" y="75.2" width="4.51" height="4.51"/><rect x="96.44" y="75.2" width="4.51" height="4.51"/><rect x="100.95" y="75.2" width="4.51" height="4.51"/><rect x="105.46" y="75.2" width="4.51" height="4.51"/><rect x="118.99" y="75.2" width="4.51" height="4.51"/><rect x="128.01" y="75.2" width="4.51" height="4.51"/><rect x="137.03" y="75.2" width="4.51" height="4.51"/><rect x="146.05" y="75.2" width="4.51" height="4.51"/><rect x="46.83" y="79.71" width="4.51" height="4.51"/><rect x="55.85" y="79.71" width="4.51" height="4.51"/><rect x="60.36" y="79.71" width="4.51" height="4.51"/><rect x="64.87" y="79.71" width="4.51" height="4.51"/><rect x="73.89" y="79.71" width="4.51" height="4.51"/><rect x="78.4" y="79.71" width="4.51" height="4.51"/><rect x="82.91" y="79.71" width="4.51" height="4.51"/><rect x="105.46" y="79.71" width="4.51" height="4.51"/><rect x="114.48" y="79.71" width="4.51" height="4.51"/><rect x="118.99" y="79.71" width="4.51" height="4.51"/><rect x="128.01" y="79.71" width="4.51" height="4.51"/><rect x="146.05" y="79.71" width="4.51" height="4.51"/><rect x="42.32" y="84.22" width="4.51" height="4.51"/><rect x="46.83" y="84.22" width="4.51" height="4.51"/><rect x="51.34" y="84.22" width="4.51" height="4.51"/><rect x="69.38" y="84.22" width="4.51" height="4.51"/><rect x="73.89" y="84.22" width="4.51" height="4.51"/><rect x="82.91" y="84.22" width="4.51" height="4.51"/><rect x="91.93" y="84.22" width="4.51" height="4.51"/><rect x="96.44" y="84.22" width="4.51" height="4.51"/><rect x="100.95" y="84.22" width="4.51" height="4.51"/><rect x="109.97" y="84.22" width="4.51" height="4.51"/><rect x="123.5" y="84.22" width="4.51" height="4.51"/><rect x="128.01" y="84.22" width="4.51" height="4.51"/><rect x="137.03" y="84.22" width="4.51" height="4.51"/><rect x="146.05" y="84.22" width="4.51" height="4.51"/><rect x="150.56" y="84.22" width="4.51" height="4.51"/><rect x="60.36" y="88.73" width="4.51" height="4.51"/><rect x="64.87" y="88.73" width="4.51" height="4.51"/><rect x="78.4" y="88.73" width="4.51" height="4.51"/><rect x="82.91" y="88.73" width="4.51" height="4.51"/><rect x="87.42" y="88.73" width="4.51" height="4.51"/><rect x="91.93" y="88.73" width="4.51" height="4.51"/><rect x="105.46" y="88.73" width="4.51" height="4.51"/><rect x="109.97" y="88.73" width="4.51" height="4.51"/><rect x="114.48" y="88.73" width="4.51" height="4.51"/><rect x="128.01" y="88.73" width="4.51" height="4.51"/><rect x="150.56" y="88.73" width="4.51" height="4.51"/><rect x="42.32" y="93.24" width="4.51" height="4.51"/><rect x="51.34" y="93.24" width="4.51" height="4.51"/><rect x="55.85" y="93.24" width="4.51" height="4.51"/><rect x="60.36" y="93.24" width="4.51" height="4.51"/><rect x="64.87" y="93.24" width="4.51" height="4.51"/><rect x="69.38" y="93.24" width="4.51" height="4.51"/><rect x="78.4" y="93.24" width="4.51" height="4.51"/><rect x="82.91" y="93.24" width="4.51" height="4.51"/><rect x="91.93" y="93.24" width="4.51" height="4.51"/><rect x="100.95" y="93.24" width="4.51" height="4.51"/><rect x="109.97" y="93.24" width="4.51" height="4.51"/><rect x="114.48" y="93.24" width="4.51" height="4.51"/><rect x="118.99" y="93.24" width="4.51" height="4.51"/><rect x="123.5" y="93.24" width="4.51" height="4.51"/><rect x="132.52" y="93.24" width="4.51" height="4.51"/><rect x="141.54" y="93.24" width="4.51" height="4.51"/><rect x="146.05" y="93.24" width="4.51" height="4.51"/><rect x="150.56" y="93.24" width="4.51" height="4.51"/><rect x="42.32" y="97.75" width="4.51" height="4.51"/><rect x="51.34" y="97.75" width="4.51" height="4.51"/><rect x="55.85" y="97.75" width="4.51" height="4.51"/><rect x="73.89" y="97.75" width="4.51" height="4.51"/><rect x="82.91" y="97.75" width="4.51" height="4.51"/><rect x="87.42" y="97.75" width="4.51" height="4.51"/><rect x="96.44" y="97.75" width="4.51" height="4.51"/><rect x="100.95" y="97.75" width="4.51" height="4.51"/><rect x="114.48" y="97.75" width="4.51" height="4.51"/><rect x="128.01" y="97.75" width="4.51" height="4.51"/><rect x="137.03" y="97.75" width="4.51" height="4.51"/><rect x="146.05" y="97.75" width="4.51" height="4.51"/><rect x="42.32" y="102.26" width="4.51" height="4.51"/><rect x="51.34" y="102.26" width="4.51" height="4.51"/><rect x="55.85" y="102.26" width="4.51" height="4.51"/><rect x="69.38" y="102.26" width="4.51" height="4.51"/><rect x="73.89" y="102.26" width="4.51" height="4.51"/><rect x="78.4" y="102.26" width="4.51" height="4.51"/><rect x="82.91" y="102.26" width="4.51" height="4.51"/><rect x="100.95" y="102.26" width="4.51" height="4.51"/><rect x="105.46" y="102.26" width="4.51" height="4.51"/><rect x="109.97" y="102.26" width="4.51" height="4.51"/><rect x="114.48" y="102.26" width="4.51" height="4.51"/><rect x="118.99" y="102.26" width="4.51" height="4.51"/><rect x="123.5" y="102.26" width="4.51" height="4.51"/><rect x="137.03" y="102.26" width="4.51" height="4.51"/><rect x="146.05" y="102.26" width="4.51" height="4.51"/><rect x="150.56" y="102.26" width="4.51" height="4.51"/><rect x="42.32" y="106.77" width="4.51" height="4.51"/><rect x="60.36" y="106.77" width="4.51" height="4.51"/><rect x="64.87" y="106.77" width="4.51" height="4.51"/><rect x="87.42" y="106.77" width="4.51" height="4.51"/><rect x="96.44" y="106.77" width="4.51" height="4.51"/><rect x="109.97" y="106.77" width="4.51" height="4.51"/><rect x="114.48" y="106.77" width="4.51" height="4.51"/><rect x="118.99" y="106.77" width="4.51" height="4.51"/><rect x="123.5" y="106.77" width="4.51" height="4.51"/><rect x="128.01" y="106.77" width="4.51" height="4.51"/><rect x="137.03" y="106.77" width="4.51" height="4.51"/><rect x="150.56" y="106.77" width="4.51" height="4.51"/><rect x="42.32" y="111.28" width="4.51" height="4.51"/><rect x="51.34" y="111.28" width="4.51" height="4.51"/><rect x="55.85" y="111.28" width="4.51" height="4.51"/><rect x="64.87" y="111.28" width="4.51" height="4.51"/><rect x="69.38" y="111.28" width="4.51" height="4.51"/><rect x="78.4" y="111.28" width="4.51" height="4.51"/><rect x="82.91" y="111.28" width="4.51" height="4.51"/><rect x="87.42" y="111.28" width="4.51" height="4.51"/><rect x="96.44" y="111.28" width="4.51" height="4.51"/><rect x="100.95" y="111.28" width="4.51" height="4.51"/><rect x="105.46" y="111.28" width="4.51" height="4.51"/><rect x="109.97" y="111.28" width="4.51" height="4.51"/><rect x="114.48" y="111.28" width="4.51" height="4.51"/><rect x="118.99" y="111.28" width="4.51" height="4.51"/><rect x="123.5" y="111.28" width="4.51" height="4.51"/><rect x="128.01" y="111.28" width="4.51" height="4.51"/><rect x="132.52" y="111.28" width="4.51" height="4.51"/><rect x="141.54" y="111.28" width="4.51" height="4.51"/><rect x="78.4" y="115.79" width="4.51" height="4.51"/><rect x="87.42" y="115.79" width="4.51" height="4.51"/><rect x="114.48" y="115.79" width="4.51" height="4.51"/><rect x="132.52" y="115.79" width="4.51" height="4.51"/><rect x="137.03" y="115.79" width="4.51" height="4.51"/><rect x="141.54" y="115.79" width="4.51" height="4.51"/><rect x="42.32" y="120.3" width="4.51" height="4.51"/><rect x="46.83" y="120.3" width="4.51" height="4.51"/><rect x="51.34" y="120.3" width="4.51" height="4.51"/><rect x="55.85" y="120.3" width="4.51" height="4.51"/><rect x="60.36" y="120.3" width="4.51" height="4.51"/><rect x="64.87" y="120.3" width="4.51" height="4.51"/><rect x="69.38" y="120.3" width="4.51" height="4.51"/><rect x="78.4" y="120.3" width="4.51" height="4.51"/><rect x="91.93" y="120.3" width="4.51" height="4.51"/><rect x="96.44" y="120.3" width="4.51" height="4.51"/><rect x="100.95" y="120.3" width="4.51" height="4.51"/><rect x="114.48" y="120.3" width="4.51" height="4.51"/><rect x="123.5" y="120.3" width="4.51" height="4.51"/><rect x="132.52" y="120.3" width="4.51" height="4.51"/><rect x="137.03" y="120.3" width="4.51" height="4.51"/><rect x="141.54" y="120.3" width="4.51" height="4.51"/><rect x="146.05" y="120.3" width="4.51" height="4.51"/><rect x="150.56" y="120.3" width="4.51" height="4.51"/><rect x="42.32" y="124.81" width="4.51" height="4.51"/><rect x="69.38" y="124.81" width="4.51" height="4.51"/><rect x="82.91" y="124.81" width="4.51" height="4.51"/><rect x="87.42" y="124.81" width="4.51" height="4.51"/><rect x="91.93" y="124.81" width="4.51" height="4.51"/><rect x="105.46" y="124.81" width="4.51" height="4.51"/><rect x="114.48" y="124.81" width="4.51" height="4.51"/><rect x="132.52" y="124.81" width="4.51" height="4.51"/><rect x="137.03" y="124.81" width="4.51" height="4.51"/><rect x="150.56" y="124.81" width="4.51" height="4.51"/><rect x="42.32" y="129.32" width="4.51" height="4.51"/><rect x="51.34" y="129.32" width="4.51" height="4.51"/><rect x="55.85" y="129.32" width="4.51" height="4.51"/><rect x="60.36" y="129.32" width="4.51" height="4.51"/><rect x="69.38" y="129.32" width="4.51" height="4.51"/><rect x="78.4" y="129.32" width="4.51" height="4.51"/><rect x="91.93" y="129.32" width="4.51" height="4.51"/><rect x="96.44" y="129.32" width="4.51" height="4.51"/><rect x="100.95" y="129.32" width="4.51" height="4.51"/><rect x="105.46" y="129.32" width="4.51" height="4.51"/><rect x="109.97" y="129.32" width="4.51" height="4.51"/><rect x="114.48" y="129.32" width="4.51" height="4.51"/><rect x="118.99" y="129.32" width="4.51" height="4.51"/><rect x="123.5" y="129.32" width="4.51" height="4.51"/><rect x="128.01" y="129.32" width="4.51" height="4.51"/><rect x="132.52" y="129.32" width="4.51" height="4.51"/><rect x="137.03" y="129.32" width="4.51" height="4.51"/><rect x="141.54" y="129.32" width="4.51" height="4.51"/><rect x="42.32" y="133.83" width="4.51" height="4.51"/><rect x="51.34" y="133.83" width="4.51" height="4.51"/><rect x="55.85" y="133.83" width="4.51" height="4.51"/><rect x="60.36" y="133.83" width="4.51" height="4.51"/><rect x="69.38" y="133.83" width="4.51" height="4.51"/><rect x="78.4" y="133.83" width="4.51" height="4.51"/><rect x="82.91" y="133.83" width="4.51" height="4.51"/><rect x="87.42" y="133.83" width="4.51" height="4.51"/><rect x="96.44" y="133.83" width="4.51" height="4.51"/><rect x="100.95" y="133.83" width="4.51" height="4.51"/><rect x="118.99" y="133.83" width="4.51" height="4.51"/><rect x="123.5" y="133.83" width="4.51" height="4.51"/><rect x="128.01" y="133.83" width="4.51" height="4.51"/><rect x="132.52" y="133.83" width="4.51" height="4.51"/><rect x="141.54" y="133.83" width="4.51" height="4.51"/><rect x="146.05" y="133.83" width="4.51" height="4.51"/><rect x="150.56" y="133.83" width="4.51" height="4.51"/><rect x="42.32" y="138.34" width="4.51" height="4.51"/><rect x="51.34" y="138.34" width="4.51" height="4.51"/><rect x="55.85" y="138.34" width="4.51" height="4.51"/><rect x="60.36" y="138.34" width="4.51" height="4.51"/><rect x="69.38" y="138.34" width="4.51" height="4.51"/><rect x="78.4" y="138.34" width="4.51" height="4.51"/><rect x="87.42" y="138.34" width="4.51" height="4.51"/><rect x="100.95" y="138.34" width="4.51" height="4.51"/><rect x="105.46" y="138.34" width="4.51" height="4.51"/><rect x="109.97" y="138.34" width="4.51" height="4.51"/><rect x="128.01" y="138.34" width="4.51" height="4.51"/><rect x="141.54" y="138.34" width="4.51" height="4.51"/><rect x="150.56" y="138.34" width="4.51" height="4.51"/><rect x="42.32" y="142.85" width="4.51" height="4.51"/><rect x="69.38" y="142.85" width="4.51" height="4.51"/><rect x="78.4" y="142.85" width="4.51" height="4.51"/><rect x="82.91" y="142.85" width="4.51" height="4.51"/><rect x="105.46" y="142.85" width="4.51" height="4.51"/><rect x="109.97" y="142.85" width="4.51" height="4.51"/><rect x="114.48" y="142.85" width="4.51" height="4.51"/><rect x="118.99" y="142.85" width="4.51" height="4.51"/><rect x="128.01" y="142.85" width="4.51" height="4.51"/><rect x="132.52" y="142.85" width="4.51" height="4.51"/><rect x="137.03" y="142.85" width="4.51" height="4.51"/><rect x="150.56" y="142.85" width="4.51" height="4.51"/><rect x="42.32" y="147.36" width="4.51" height="4.51"/><rect x="46.83" y="147.36" width="4.51" height="4.51"/><rect x="51.34" y="147.36" width="4.51" height="4.51"/><rect x="55.85" y="147.36" width="4.51" height="4.51"/><rect x="60.36" y="147.36" width="4.51" height="4.51"/><rect x="64.87" y="147.36" width="4.51" height="4.51"/><rect x="69.38" y="147.36" width="4.51" height="4.51"/><rect x="78.4" y="147.36" width="4.51" height="4.51"/><rect x="91.93" y="147.36" width="4.51" height="4.51"/><rect x="96.44" y="147.36" width="4.51" height="4.51"/><rect x="100.95" y="147.36" width="4.51" height="4.51"/><rect x="105.46" y="147.36" width="4.51" height="4.51"/><rect x="128.01" y="147.36" width="4.51" height="4.51"/><rect x="132.52" y="147.36" width="4.51" height="4.51"/><rect x="137.03" y="147.36" width="4.51" height="4.51"/><rect x="141.54" y="147.36" width="4.51" height="4.51"/><rect x="146.05" y="147.36" width="4.51" height="4.51"/><rect x="150.56" y="147.36" width="4.51" height="4.51"/></svg>