<svg xmlns="http://www.w3.org/2000/svg" xmlns:xlink="http://www.w3.org/1999/xlink" viewBox="0 0 765.08 444.1"><defs><style>.cls-1,.cls-2,.cls-9{fill:none;}.cls-2{stroke:#231f20;stroke-width:3.6px;}.cls-3{isolation:isolate;}.cls-12,.cls-4,.cls-6,.cls-8{fill:#fff;}.cls-4{stroke:#000;stroke-width:0.25px;}.cls-4,.cls-8,.cls-9{stroke-miterlimit:10;}.cls-13,.cls-5{fill:#424242;}.cls-5,.cls-6,.cls-7{fill-rule:evenodd;}.cls-10,.cls-7{fill:#c32127;}.cls-8{stroke:#c33;stroke-width:3px;}.cls-9{stroke:#424242;}.cls-11{fill:#221f1f;}.cls-14{mix-blend-mode:color-dodge;fill:url(#_30_6_lpp);}</style><pattern id="_30_6_lpp" data-name="30 % 6 lpp" width="72" height="72" patternTransform="translate(-549.43 65.13) rotate(135)" patternUnits="userSpaceOnUse" viewBox="0 0 72 72"><rect class="cls-1" width="72" height="72"/><line class="cls-2" x1="-0.25" y1="66" x2="72.25" y2="66"/><line class="cls-2" x1="-0.25" y1="42" x2="72.25" y2="42"/><line class="cls-2" x1="-0.25" y1="18" x2="72.25" y2="18"/><line class="cls-2" x1="-24" y1="18" x2="-7.5" y2="18"/><line class="cls-2" x1="-0.25" y1="54" x2="72.25" y2="54"/><line class="cls-2" x1="-0.25" y1="30" x2="72.25" y2="30"/><line class="cls-2" x1="-0.25" y1="6" x2="72.25" y2="6"/><line class="cls-2" x1="-24" y1="6" x2="-7.5" y2="6"/></pattern></defs><title>-logo-Plan de travail 1SVG</title><g class="cls-3"><g id="Calque_1" data-name="Calque 1"><path class="cls-4" d="M724.65,11H276V432.75H724.65A28.35,28.35,0,0,0,753,404.4v-365A28.35,28.35,0,0,0,724.65,11Z"/><path class="cls-5" d="M707.44,222.45a22.4,22.4,0,1,1-22.39-22.4A22.39,22.39,0,0,1,707.44,222.45Z"/><path class="cls-6" d="M692.9,223.94h0l-5.52,9.56,0,0a2.17,2.17,0,0,1-2,1.35,2.19,2.19,0,0,1-2-1.35l0,0-5.52-9.56a8.74,8.74,0,1,1,15.13,0Zm-7.56-7.65a3.28,3.28,0,1,0,3.28,3.28A3.28,3.28,0,0,0,685.34,216.29Z"/><path class="cls-7" d="M707.44,358.16a22.4,22.4,0,1,1-22.39-22.4A22.39,22.39,0,0,1,707.44,358.16Z"/><path class="cls-6" d="M683.89,348.22l-1.26.73-2-5.46-.46.17,1.68-1c.93-.53,1.28.27,1.82,1.2C683.63,343.88,685.31,347.4,683.89,348.22Zm-1.69,1c-1.86,1.07-1.48,3.25.4,6.51s3.58,4.67,5.44,3.59l-.38.31,3.71,4.51-.41.24-.84.48c-3.26,1.88-6.83-2.09-10-7.67s-4.88-10.66-1.63-12.54l.85-.49.41-.24,2,5.47Zm10,14.36-3.71-4.5,1.25-.73c1.66-.95,3.63,2.4,3.63,2.4.54.93,1.06,1.63.13,2.17l-1.68,1Z"/><path class="cls-7" d="M707.44,290.25a22.4,22.4,0,1,1-22.39-22.4A22.38,22.38,0,0,1,707.44,290.25Z"/><path class="cls-6" d="M693,281.64h-15.3a3.28,3.28,0,0,0-3.28,3.28v9.83a3.28,3.28,0,0,0,3.28,3.28H693a3.28,3.28,0,0,0,3.28-3.28v-9.83A3.28,3.28,0,0,0,693,281.64Zm-.36,2.18-5,5.24-2.27,2.37-2.28-2.37-5-5.24Zm-16,10.4v-8.74l4.19,4.37Zm1.48,1.62,4.23-4.41,2.28,2.37a1,1,0,0,0,1.51,0l2.28-2.37,4.23,4.41Zm16-1.62-4.19-4.37,4.19-4.37Z"/><rect class="cls-8" x="79.86" y="112.6" width="127.73" height="128.11"/><line class="cls-9" x1="753" y1="136.64" x2="276.02" y2="136.64"/><path class="cls-10" d="M11.44,354.71V404.4a28.34,28.34,0,0,0,28.34,28.35H276v-78Z"/><path class="cls-10" d="M592.87,68.1,587,95.29c-.77,3.76-2,6.62-6.37,6.62-2.23,0-5-1.14-3.82-6.62l5.86-27.19H564L560,87l3.52,23.83c3.56,2.2,8.72,3.28,15.41,3.28,18.79,0,24.2-6.56,26.81-19l5.8-26.94Z"/><path class="cls-10" d="M655.05,69.54l.3-1.44H616.17l-2.54,11.78h7.65l-7,33.05H633l7-33.05h6.91A29,29,0,0,1,655.05,69.54Z"/><path class="cls-10" d="M695.41,76H674.1l2-9c-19.87.74-27.76,14.28-27.76,27.16,0,10.19,6,19.94,24.45,19.94,15.26,0,24.73-6.76,28.36-16.75H690.69Zm-21.85,26.66c-4.33,0-5.42-3.76-5.42-7.64,0-5.67,2.49-17.2,9.43-17.2,4.08,0,5.6,2.87,5.6,7.07C683.17,91,681,102.68,673.56,102.68Z"/><polygon class="cls-11" points="716.02 59.24 719.38 44.09 707.14 44.09 703.78 59.24 682.47 59.24 679.76 71.48 701.07 71.48 696.34 92.79 708.58 92.79 713.31 71.48 734.62 71.48 737.33 59.24 716.02 59.24"/><path class="cls-10" d="M517.27,63.8C508,54.64,502,67.49,502,67.49c-6.06-6.26-41.33-.8-41.33-.8l-3.37-6.88-11.5-1.62s48.93-5.2,47.75-10.78-1.87-8.19-31-10.18-50.28,2.45-50.28,2.45a90.25,90.25,0,0,0-22.86,7.15c-10.81,5.3-18,6.72-18,6.72C357.07,56,343,59.49,333,63.3s-10.19,9.45-10.19,9.45c-7.52,6.91-2.84,22.68-2.84,22.68-3,3.35,2,5.72,2,5.72A4.48,4.48,0,0,0,320,105.6c18.18,10.49,65.81,9.77,65.81,9.77h30.52c12.35,0,33.2-7.13,33.2-7.13l17.22-4.59c17.22-4.6,43.55-5.76,49.66-6.85S526.51,73,517.27,63.8ZM492.36,46.24s1.17,1.85-2.34,1.85-43.48,1.33-43.48,1.33S487.75,37.64,492.36,46.24Zm-43.64-3.09-13.91,7-28,4.45-19.64-1.32S408.1,37.46,448.72,43.15Zm-123,37.31L329,77.37a2.38,2.38,0,0,1,1.64-.27l19.39,3.36-1.75,2.65,5.05-1.42s4.5,1.75,18.67.44,14-.76,21.74-7.36c0,0,.29,8.31-27.12,9.53S357.72,87.13,325.7,80.46Zm35.87-6.08s40.82-10.13,33.64-2.77L384,72.25s-5.36,9-6.48.67l-7.83,1s-4.11,6.14-4.68.22Zm.57,32.76s31.59-6.3,36-1.48Zm-2.83-39.85,31.34-5.8q3.06-.65,6.39-1.19l-6.39,1.19C370.29,65.73,359,72.74,359,72.74c-10.25,2.62-28.3-1.95-28.3-1.95,8.28-9.93,44.41-16,44.41-16,4.34.38,23.91,1.52,30.7,1.91.77,0,1.55.07,2.32.13l-2.32-.13C382.31,55.75,359.31,67.29,359.31,67.29Zm61.31,45.34c-9.21.28-16.56-8.56-16.29-19.58.27-10.84,7.83-19.5,16.77-19.5S437,82,437,92.56C437,103.3,429.71,112.35,420.62,112.63Zm.29-46.07,19.67-7.45s17.47,6.51,12.53,8.63L437,70.36l1,5.69S431.79,65.74,420.91,66.56ZM443.33,97.1s5.31-6.11,23-9.48,25.73-6.34,31.81.31Zm70.47-1.4c-4.39.13-7.88-7.11-7.75-15.93.12-8.53,3.61-15.26,7.76-15.26s7.53,6.63,7.64,15C521.57,88.23,518.16,95.57,513.8,95.7Z"/><path class="cls-11" d="M512.25,73.9c1.7-2.56,1.41-4.08,1.41-4.08s.16-1.57-2.33-1.4-1.53,1.64-1.53,1.64C511,73.27,509,77,509,77,509.94,77.43,510.55,76.46,512.25,73.9Z"/><path class="cls-11" d="M516.34,73.49a16.06,16.06,0,0,1-6.27,5.15c-1.91,1.25,3.11,1.56,5.46,1.84s2.25-1.32,2.25-1.32C517.56,73.44,516.34,73.49,516.34,73.49Z"/><path class="cls-11" d="M510.84,82.18c-1.82-.28-.78,1.14-.78,1.14,3.68,5.19,1.87,9.77,1.87,9.77,2.64-.57,4.12-3.47,4.12-3.47C519.76,82.24,512.67,82.47,510.84,82.18Z"/><path class="cls-11" d="M417,87s-.07,4.82,3.19,1.42,6.32-5.53,5.45-9.37-11.34-2.29-11.34-2.29S418,80.16,417,87Z"/><path class="cls-11" d="M427.47,84.67l-6.69,4.83s-2.4,1.81.6,2.89,9,2.8,10.26,2.2-.56-8-1.56-9.88S427.47,84.67,427.47,84.67Z"/><path class="cls-11" d="M415.12,94.61s-4.26,6.25-5.45,8,0,2.7,0,2.7,5.3,3.07,6.66,3.17,1.64.74,3.32-2.08-2-9.94-2.92-12S415.12,94.61,415.12,94.61Z"/><path class="cls-11" d="M414,93.78s3.56-3,.94-8.38-4-5.15-4-5.15-5,3.72-4.48,15.92C406.42,96.17,409.49,98.62,414,93.78Z"/><path class="cls-1" d="M537.64,79.88c-1.46,4.07-4.14,10.38-6,14.58H539c-.31-3.56-.7-10.38-.95-14.58Z"/><path class="cls-10" d="M527.9,68.1l-3.36,6.19a34.27,34.27,0,0,1,.63,6.59c0,12-6.14,21.61-13.76,21.61a9.34,9.34,0,0,1-2.05-.23l-5.79,10.67h19.17l3.31-6.75h14.08l.57,6.75h18.53L552.61,68.1Zm3.76,26.36c1.84-4.2,4.52-10.51,6-14.58h.45c.25,4.2.64,11,.95,14.58Z"/><path class="cls-11" d="M510.92,58.28a9.43,9.43,0,0,1,2.74.47,14.41,14.41,0,0,1-.64-4.26A15.17,15.17,0,0,1,518,43l0-.16h.15a16.86,16.86,0,0,1,8.73-3.76l.77-3.65h-28l-1.56,7.41h8.13l-4.33,20.41C504.34,60.11,507.47,58.23,510.92,58.28Z"/><path class="cls-11" d="M515.87,54.49c0,4.64,2.37,9.73,12.14,9.73,4.75,0,8-1.06,10.26-2.61l1.06-5h-7.47a2.64,2.64,0,0,1-2.76,1.84c-1.21,0-2-.68-2-2.32a7.81,7.81,0,0,1,.08-.92h12.42l1.3-6.16c.23-1.12.45-2.15.64-3.06-1.88-2.58-5.46-4.24-11.07-4.24C520.44,41.71,515.87,47.72,515.87,54.49Zm15-7.25a1.6,1.6,0,0,1,1.8,1.72,5.93,5.93,0,0,1-.16,1.36h-4.33C528.45,48.2,529.62,47.24,530.82,47.24Z"/><path class="cls-11" d="M563.67,41.71a8.68,8.68,0,0,0-8.09,4.52,23.87,23.87,0,0,0,.48-4h-10.9c-.16,1.2-.64,3.56-1.44,7.33l-3,14.06h11.62L554,56c.88-4.09,3.8-4.53,7.45-4.37Z"/><path class="cls-11" d="M585.36,55.17l1.42-6.76c.14-.66.26-1.25.37-1.79-1.73-3-5.43-4.91-11.52-4.91A16.41,16.41,0,0,0,566,44.36l-2.32,10.2-2.38-.1H561v0c0,4.64,2.36,9.73,12.14,9.73,5.28,0,8.73-1.31,11-3.14l.95-4.51H577a2.64,2.64,0,0,1-2.76,1.84c-1.2,0-2-.68-2-2.32a7.81,7.81,0,0,1,.08-.92ZM576,47.24a1.6,1.6,0,0,1,1.8,1.72,5.93,5.93,0,0,1-.16,1.36h-4.32C573.59,48.2,574.75,47.24,576,47.24Z"/><path class="cls-11" d="M609.16,41.71a10.49,10.49,0,0,0-7.09,2.48c.08-.64.16-1.64.16-1.92h-11.3c-.16.92-.44,2.28-1.36,6.73l-3.08,14.66h11.62l2.56-12.14c.52-2.56,1.44-3,2.28-3,1,0,1.33.68,1,2.44l-2.68,12.74h11.62l2.8-13.34C616.77,45,614.73,41.71,609.16,41.71Z"/><path d="M424.47,291.7v-6.08h-1.63v-1.4l1.72-.11.22-3.08h1.55v3.08h3v1.51h-3v6.11c0,1.34.43,2.12,1.7,2.12a3.8,3.8,0,0,0,1.25-.29l.36,1.4a6.61,6.61,0,0,1-2,.41C425.27,295.37,424.47,293.88,424.47,291.7Z"/><path d="M430.66,289.62c0-3.58,2.4-5.78,4.93-5.78,2.81,0,4.39,2,4.39,5.15a6.17,6.17,0,0,1-.09,1.06h-7.4c.14,2.33,1.56,3.84,3.65,3.84a4.88,4.88,0,0,0,2.74-.88l.66,1.22a6.44,6.44,0,0,1-3.63,1.14C433,295.37,430.66,293.23,430.66,289.62Zm7.67-.9c0-2.2-1-3.4-2.7-3.4-1.55,0-2.93,1.24-3.15,3.4Z"/><path d="M442.67,284.11h1.54l.16,2h.06a3.78,3.78,0,0,1,3.12-2.27,2.58,2.58,0,0,1,1.17.22l-.34,1.64a3.08,3.08,0,0,0-1.07-.18c-.93,0-2,.66-2.78,2.52v7.06h-1.86Z"/><path d="M449.48,289.62c0-3.58,2.41-5.78,4.94-5.78,2.8,0,4.38,2,4.38,5.15a5.3,5.3,0,0,1-.09,1.06h-7.39c.13,2.33,1.55,3.84,3.65,3.84a4.85,4.85,0,0,0,2.73-.88l.67,1.22a6.5,6.5,0,0,1-3.63,1.14C451.81,295.37,449.48,293.23,449.48,289.62Zm7.68-.9c0-2.2-1-3.4-2.71-3.4-1.54,0-2.92,1.24-3.15,3.4Z"/><path d="M461.5,284.11H463l.16,1.58h.06a5.25,5.25,0,0,1,3.69-1.85c2.31,0,3.35,1.49,3.35,4.29v7h-1.86v-6.72c0-2.05-.62-2.93-2.07-2.93-1.12,0-1.9.58-3,1.69v8H461.5Z"/><path d="M473.47,294a1.35,1.35,0,1,1,1.34,1.41A1.36,1.36,0,0,1,473.47,294Z"/><path d="M478.45,289.62c0-3.57,2.25-5.78,4.76-5.78a4.5,4.5,0,0,1,3.07,1.27l-.07-1.88V279h1.85v16.1h-1.53l-.16-1.3h-.06a4.86,4.86,0,0,1-3.33,1.57C480.23,295.37,478.45,293.28,478.45,289.62Zm7.76,2.68v-5.75a3.88,3.88,0,0,0-2.68-1.15c-1.76,0-3.16,1.7-3.16,4.2s1.09,4.2,3,4.2A3.79,3.79,0,0,0,486.21,292.3Z"/><path d="M491,289.62c0-3.67,2.4-5.78,5.09-5.78s5.09,2.11,5.09,5.78-2.4,5.75-5.09,5.75S491,293.25,491,289.62Zm8.26,0c0-2.52-1.28-4.23-3.17-4.23s-3.17,1.71-3.17,4.23,1.28,4.2,3.17,4.2S499.22,292.13,499.22,289.62Z"/><path d="M503.21,289.62c0-3.67,2.4-5.78,5.09-5.78s5.1,2.11,5.1,5.78-2.4,5.75-5.1,5.75S503.21,293.25,503.21,289.62Zm8.26,0c0-2.52-1.28-4.23-3.17-4.23s-3.16,1.71-3.16,4.23,1.28,4.2,3.16,4.2S511.47,292.13,511.47,289.62Z"/><path d="M515.47,289.62c0-3.58,2.41-5.78,4.94-5.78,2.8,0,4.38,2,4.38,5.15a6.28,6.28,0,0,1-.08,1.06h-7.4c.13,2.33,1.55,3.84,3.65,3.84a4.85,4.85,0,0,0,2.73-.88l.67,1.22a6.5,6.5,0,0,1-3.63,1.14C517.8,295.37,515.47,293.23,515.47,289.62Zm7.68-.9c0-2.2-1-3.4-2.71-3.4-1.54,0-2.92,1.24-3.15,3.4Z"/><path d="M527.49,292.89V279h1.86v14c0,.57.25.8.52.8a1.44,1.44,0,0,0,.4-.05l.26,1.42a2.92,2.92,0,0,1-1.07.18C528.06,295.37,527.49,294.48,527.49,292.89Z"/><path d="M532.54,290.5c0-6.05,4.38-10,9.43-10,4.56,0,7.43,3,7.43,7.5,0,3.94-2.47,6-4.52,6a2.08,2.08,0,0,1-2.34-1.71h0a3.89,3.89,0,0,1-2.74,1.55c-1.54,0-2.73-1.15-2.73-3.2,0-2.41,1.71-5.25,4.34-5.25a2,2,0,0,1,1.81,1.1h.05l.25-.92h1.23l-.88,4.53c-.44,1.78,0,2.64,1.23,2.64,1.42,0,3-1.74,3-4.67,0-3.65-2.16-6.31-6.26-6.31s-7.91,3.42-7.91,8.7c0,4.41,2.88,6.92,6.72,6.92a7.28,7.28,0,0,0,3.66-1l.5,1.11a8.2,8.2,0,0,1-4.3,1.15C536.08,298.6,532.54,295.78,532.54,290.5Zm9.65.7.64-3.59a1.59,1.59,0,0,0-1.45-.94c-1.77,0-2.87,2.13-2.87,3.84,0,1.45.68,2,1.58,2A2.91,2.91,0,0,0,542.19,291.2Z"/><path d="M551.56,297.21a3.09,3.09,0,0,1,1.61-2.49v-.09a2,2,0,0,1-1-1.8,2.63,2.63,0,0,1,1.21-2v-.09a3.81,3.81,0,0,1-1.42-2.95,3.9,3.9,0,0,1,4.12-3.91,4.54,4.54,0,0,1,1.55.27h3.83v1.43h-2.25a3.2,3.2,0,0,1,.89,2.26,3.76,3.76,0,0,1-4,3.81,4,4,0,0,1-1.64-.37,1.59,1.59,0,0,0-.7,1.3c0,.69.45,1.19,1.93,1.19h2.13c2.56,0,3.84.8,3.84,2.62,0,2-2.16,3.8-5.55,3.8C553.42,300.15,551.56,299.1,551.56,297.21Zm8.28-.58c0-1-.77-1.36-2.21-1.36h-1.9a6.24,6.24,0,0,1-1.43-.17,2.3,2.3,0,0,0-1.12,1.84c0,1.18,1.19,1.93,3.19,1.93S559.84,297.78,559.84,296.63Zm-1.41-8.88a2.34,2.34,0,1,0-4.67,0,2.35,2.35,0,1,0,4.67,0Z"/><path d="M563.79,284.11h1.54l.15,1.59h.07a4.87,4.87,0,0,1,3.41-1.86,2.91,2.91,0,0,1,3,2.09c1.14-1.23,2.28-2.09,3.62-2.09,2.26,0,3.34,1.49,3.34,4.29v7H577.1v-6.72c0-2.05-.64-2.93-2-2.93a4,4,0,0,0-2.75,1.69v8h-1.86v-6.72c0-2.05-.65-2.93-2.05-2.93a4.09,4.09,0,0,0-2.75,1.69v8h-1.86Z"/><path d="M581.84,292.24c0-2.39,2.07-3.59,6.75-4.1,0-1.41-.47-2.77-2.27-2.77a6,6,0,0,0-3.27,1.18l-.73-1.28a8.08,8.08,0,0,1,4.31-1.43c2.69,0,3.82,1.78,3.82,4.52v6.74h-1.54l-.15-1.32h-.06a5.86,5.86,0,0,1-3.64,1.59A3,3,0,0,1,581.84,292.24Zm6.75.18v-3.06c-3.68.45-4.92,1.35-4.92,2.75,0,1.25.84,1.76,1.92,1.76A4.54,4.54,0,0,0,588.59,292.42Z"/><path d="M593.58,280.65a1.29,1.29,0,1,1,1.29,1.2A1.22,1.22,0,0,1,593.58,280.65Zm.34,3.46h1.86v11h-1.86Z"/><path d="M599.49,292.89V279h1.86v14c0,.57.25.8.52.8a1.47,1.47,0,0,0,.41-.05l.25,1.42a2.92,2.92,0,0,1-1.07.18C600.06,295.37,599.49,294.48,599.49,292.89Z"/><path d="M604.87,294a1.35,1.35,0,1,1,1.35,1.41A1.36,1.36,0,0,1,604.87,294Z"/><path d="M609.82,289.62c0-3.67,2.48-5.78,5.29-5.78a4.58,4.58,0,0,1,3.21,1.29l-1,1.23a3.18,3.18,0,0,0-2.18-1c-2,0-3.45,1.71-3.45,4.23s1.38,4.2,3.4,4.2a3.93,3.93,0,0,0,2.58-1.1l.81,1.25a5.37,5.37,0,0,1-3.56,1.4C612.05,295.37,609.82,293.25,609.82,289.62Z"/><path d="M619.64,289.62c0-3.67,2.4-5.78,5.09-5.78s5.1,2.11,5.1,5.78-2.4,5.75-5.1,5.75S619.64,293.25,619.64,289.62Zm8.26,0c0-2.52-1.28-4.23-3.17-4.23s-3.16,1.71-3.16,4.23,1.28,4.2,3.16,4.2S627.9,292.13,627.9,289.62Z"/><path d="M632.72,284.11h1.53l.16,1.59h.06a4.87,4.87,0,0,1,3.42-1.86,2.89,2.89,0,0,1,3,2.09c1.14-1.23,2.29-2.09,3.63-2.09,2.25,0,3.34,1.49,3.34,4.29v7H646v-6.72c0-2.05-.65-2.93-2-2.93-.86,0-1.74.56-2.76,1.69v8h-1.86v-6.72c0-2.05-.64-2.93-2-2.93a4.07,4.07,0,0,0-2.75,1.69v8h-1.86Z"/><path class="cls-12" d="M47.35,372.17H41.8v-2H55.23v2H49.68v16.37H47.35Z"/><path class="cls-12" d="M55.45,381.77c0-4.42,3-7.15,6.11-7.15C65,374.62,67,377.11,67,381a6.85,6.85,0,0,1-.11,1.3H57.72c.16,2.88,1.92,4.75,4.51,4.75A5.93,5.93,0,0,0,65.62,386l.82,1.51A8,8,0,0,1,62,388.88C58.33,388.88,55.45,386.23,55.45,381.77Zm9.5-1.11c0-2.73-1.23-4.21-3.35-4.21-1.91,0-3.62,1.54-3.9,4.21Z"/><path class="cls-12" d="M70.31,375h1.9l.19,1.56h.08a7.16,7.16,0,0,1,4.33-1.9c3.51,0,5.39,2.73,5.39,6.92,0,4.64-2.78,7.34-5.88,7.34a6.17,6.17,0,0,1-3.77-1.57l.06,2.37v4.6h-2.3Zm9.52,6.61c0-3-1-5-3.59-5a5.58,5.58,0,0,0-3.63,1.85v7.12A5.28,5.28,0,0,0,75.92,387C78.17,387,79.83,384.92,79.83,381.57Z"/><path class="cls-12" d="M84.81,381.77c0-4.42,3-7.15,6.11-7.15,3.46,0,5.42,2.49,5.42,6.38a6.85,6.85,0,0,1-.11,1.3H87.08c.17,2.88,1.93,4.75,4.52,4.75A5.92,5.92,0,0,0,95,386l.82,1.51a8,8,0,0,1-4.49,1.41C87.69,388.88,84.81,386.23,84.81,381.77Zm9.5-1.11c0-2.73-1.23-4.21-3.35-4.21-1.91,0-3.62,1.54-3.9,4.21Z"/><path class="cls-12" d="M99.67,375H102v5.51h6.53V375h2.3v13.58h-2.3v-6H102v6h-2.3Z"/><path class="cls-12" d="M125,370.2h2.64l6.21,18.34h-2.48l-3.2-10.24c-.66-2.05-1.24-4.07-1.83-6.18h-.12c-.56,2.12-1.15,4.13-1.81,6.18l-3.24,10.24h-2.37ZM122,381.09h8.45V383H122Z"/><path class="cls-12" d="M134.61,394.12l.45-1.83a3.63,3.63,0,0,0,1,.2c1.53,0,2.5-1.23,3.06-2.91l.31-1L134,375h2.37l2.77,7.52c.43,1.18.88,2.57,1.33,3.83h.11c.38-1.24.77-2.63,1.14-3.83l2.42-7.52h2.25l-5.12,14.7c-1,2.7-2.36,4.74-5.08,4.74A4.37,4.37,0,0,1,134.61,394.12Z"/><path class="cls-12" d="M152,376.83h-4.55V375h11.39v1.87h-4.55v11.71H152Z"/><path class="cls-12" d="M160.49,381.77c0-4.54,3-7.15,6.3-7.15s6.3,2.61,6.3,7.15-3,7.11-6.3,7.11S160.49,386.27,160.49,381.77Zm10.22,0c0-3.12-1.58-5.23-3.92-5.23s-3.92,2.11-3.92,5.23,1.58,5.2,3.92,5.2S170.71,384.88,170.71,381.77Z"/><path class="cls-12" d="M182.47,370.2h13v18.34h-2.33V372.17H184.8v16.37h-2.33Z"/><path class="cls-12" d="M198.27,388.65l.43-2.11a2.22,2.22,0,0,0,.62.11c1,0,1.57-.87,1.81-2.88.36-2.93.7-5.86,1.05-8.81h8.34v13.58h-2.3V376.83H204c-.29,2.5-.59,5-.9,7.52-.39,3-1.6,4.53-3.6,4.53A3.1,3.1,0,0,1,198.27,388.65Z"/><path class="cls-12" d="M213.74,394.12l.45-1.83a3.63,3.63,0,0,0,1,.2c1.53,0,2.5-1.23,3.06-2.91l.31-1L213.15,375h2.37l2.77,7.52c.43,1.18.88,2.57,1.32,3.83h.12c.38-1.24.77-2.63,1.14-3.83l2.42-7.52h2.25l-5.12,14.7c-1,2.7-2.36,4.74-5.08,4.74A4.37,4.37,0,0,1,213.74,394.12Z"/><path class="cls-12" d="M227.05,381.77c0-4.54,3.06-7.15,6.54-7.15a5.69,5.69,0,0,1,4,1.6l-1.17,1.52a3.93,3.93,0,0,0-2.7-1.2c-2.46,0-4.27,2.11-4.27,5.23s1.71,5.2,4.21,5.2a4.91,4.91,0,0,0,3.19-1.36l1,1.54a6.59,6.59,0,0,1-4.39,1.73C229.81,388.88,227.05,386.27,227.05,381.77Z"/><path class="cls-12" d="M31.48,404.79h1.85l1.58,6.15c.23,1,.43,2,.63,3h.09c.23-1,.46-2,.72-3L38,404.79h1.76l1.66,6.15c.27,1,.5,2,.74,3h.09c.23-1,.43-2,.66-3l1.56-6.15h1.71l-2.86,10.66H41.13l-1.54-5.73c-.26-1-.46-2-.72-3.07h-.09c-.23,1.08-.44,2.09-.73,3.1l-1.49,5.7H34.45Z"/><path class="cls-12" d="M47.23,404.79h1.84l1.59,6.15c.23,1,.42,2,.63,3h.09c.23-1,.46-2,.72-3l1.65-6.15h1.76l1.66,6.15c.26,1,.49,2,.74,3H58c.23-1,.43-2,.66-3l1.55-6.15h1.72l-2.86,10.66h-2.2l-1.53-5.73c-.26-1-.47-2-.72-3.07h-.09c-.23,1.08-.45,2.09-.73,3.1l-1.5,5.7H50.19Z"/><path class="cls-12" d="M63,404.79h1.84l1.58,6.15c.23,1,.43,2,.63,3h.09c.23-1,.46-2,.73-3l1.64-6.15h1.76l1.67,6.15c.26,1,.49,2,.74,3h.08c.23-1,.43-2,.66-3L76,404.79h1.72l-2.86,10.66h-2.2l-1.54-5.73c-.26-1-.46-2-.72-3.07h-.09c-.23,1.08-.44,2.09-.73,3.1l-1.49,5.7H65.94Z"/><path class="cls-12" d="M78.73,414.34a1.31,1.31,0,1,1,1.3,1.37A1.31,1.31,0,0,1,78.73,414.34Z"/><path class="cls-12" d="M83.87,412.15v-5.89H82.28v-1.37l1.67-.1.22-3h1.5v3h2.89v1.47H85.67v5.92c0,1.3.42,2.06,1.65,2.06a3.35,3.35,0,0,0,1.21-.29l.35,1.36a6.23,6.23,0,0,1-2,.4C84.64,415.71,83.87,414.27,83.87,412.15Z"/><path class="cls-12" d="M89.86,410.13c0-3.47,2.34-5.61,4.79-5.61,2.72,0,4.26,2,4.26,5a5,5,0,0,1-.09,1H91.65c.12,2.26,1.51,3.72,3.54,3.72a4.67,4.67,0,0,0,2.65-.85l.65,1.18A6.29,6.29,0,0,1,95,415.71C92.13,415.71,89.86,413.63,89.86,410.13Zm7.45-.87c0-2.14-1-3.3-2.62-3.3-1.5,0-2.84,1.2-3.06,3.3Z"/><path class="cls-12" d="M101.52,404.79H103l.15,1.94h.06a3.68,3.68,0,0,1,3-2.21,2.47,2.47,0,0,1,1.14.22l-.34,1.59a2.82,2.82,0,0,0-1-.18c-.9,0-2,.65-2.7,2.45v6.85h-1.8Z"/><path class="cls-12" d="M108.12,410.13c0-3.47,2.34-5.61,4.79-5.61,2.72,0,4.25,2,4.25,5a5.86,5.86,0,0,1-.08,1H109.9c.13,2.26,1.51,3.72,3.54,3.72a4.68,4.68,0,0,0,2.66-.85l.64,1.18a6.27,6.27,0,0,1-3.52,1.11C110.38,415.71,108.12,413.63,108.12,410.13Zm7.45-.87c0-2.14-1-3.3-2.63-3.3-1.5,0-2.83,1.2-3,3.3Z"/><path class="cls-12" d="M119.78,404.79h1.49l.15,1.53h.06a5.11,5.11,0,0,1,3.57-1.8c2.25,0,3.26,1.45,3.26,4.17v6.76H126.5v-6.52c0-2-.6-2.84-2-2.84-1.09,0-1.84.56-2.91,1.64v7.72h-1.8Z"/><path class="cls-12" d="M131.1,412.68c0-2.32,2-3.48,6.54-4,0-1.37-.46-2.69-2.2-2.69a5.89,5.89,0,0,0-3.18,1.14l-.7-1.23a7.78,7.78,0,0,1,4.19-1.4c2.6,0,3.7,1.73,3.7,4.39v6.54H138l-.16-1.28h-.06a5.62,5.62,0,0,1-3.52,1.54A2.9,2.9,0,0,1,131.1,412.68Zm6.54.17v-3c-3.57.42-4.78,1.3-4.78,2.66a1.64,1.64,0,0,0,1.87,1.71A4.42,4.42,0,0,0,137.64,412.85Z"/><path class="cls-12" d="M142.67,411.54v-6.75h1.8v6.52c0,2,.6,2.83,2,2.83,1.09,0,1.85-.54,2.86-1.79v-7.56h1.8v10.66h-1.49l-.15-1.67h-.06a4.54,4.54,0,0,1-3.52,1.93C143.68,415.71,142.67,414.26,142.67,411.54Z"/><path class="cls-12" d="M155.05,412.15v-5.89h-1.58v-1.37l1.66-.1.22-3h1.5v3h2.89v1.47h-2.89v5.92c0,1.3.42,2.06,1.65,2.06a3.46,3.46,0,0,0,1.22-.29l.35,1.36a6.29,6.29,0,0,1-2,.4C155.82,415.71,155.05,414.27,155.05,412.15Z"/><path class="cls-12" d="M161.05,410.13c0-3.56,2.32-5.61,4.94-5.61s4.93,2.05,4.93,5.61-2.32,5.58-4.93,5.58S161.05,413.66,161.05,410.13Zm8,0c0-2.44-1.24-4.1-3.07-4.1s-3.08,1.66-3.08,4.1,1.24,4.08,3.08,4.08S169.06,412.57,169.06,410.13Z"/><path class="cls-12" d="M173.73,404.79h1.49l.15,1.23h.06a5.61,5.61,0,0,1,3.4-1.5c2.75,0,4.22,2.14,4.22,5.44,0,3.63-2.18,5.75-4.61,5.75a4.83,4.83,0,0,1-3-1.24l.05,1.86v3.61h-1.8Zm7.46,5.18c0-2.35-.81-3.93-2.81-3.93a4.4,4.4,0,0,0-2.85,1.46v5.58a4.16,4.16,0,0,0,2.59,1.11C179.89,414.19,181.19,412.6,181.19,410Z"/><path class="cls-12" d="M185.8,413.31V399.82h1.8v13.62c0,.55.24.77.5.77a1.37,1.37,0,0,0,.4,0l.24,1.38a2.88,2.88,0,0,1-1,.17C186.35,415.71,185.8,414.85,185.8,413.31Z"/><path class="cls-12" d="M191.24,411.54v-6.75h1.81v6.52c0,2,.6,2.83,2,2.83,1.09,0,1.84-.54,2.85-1.79v-7.56h1.81v10.66h-1.49l-.16-1.67H198a4.52,4.52,0,0,1-3.51,1.93C192.25,415.71,191.24,414.26,191.24,411.54Z"/><path class="cls-12" d="M202.13,414.23,203,413a4.75,4.75,0,0,0,3.14,1.26c1.4,0,2.1-.74,2.1-1.65,0-1.1-1.26-1.58-2.44-2-1.49-.55-3.18-1.28-3.18-3.08s1.37-3,3.68-3a5.4,5.4,0,0,1,3.31,1.2l-.86,1.16a4,4,0,0,0-2.43-.95c-1.34,0-2,.71-2,1.53,0,1,1.16,1.4,2.36,1.85,1.54.58,3.25,1.2,3.25,3.23,0,1.73-1.37,3.17-3.89,3.17A6.37,6.37,0,0,1,202.13,414.23Z"/><path class="cls-12" d="M212.12,414.34a1.31,1.31,0,1,1,1.31,1.37A1.32,1.32,0,0,1,212.12,414.34Z"/><path class="cls-12" d="M216.93,410.13c0-3.56,2.4-5.61,5.12-5.61a4.46,4.46,0,0,1,3.12,1.26l-.92,1.19a3.09,3.09,0,0,0-2.12-.94c-1.93,0-3.34,1.66-3.34,4.1s1.34,4.08,3.3,4.08a3.9,3.9,0,0,0,2.5-1.06l.78,1.2a5.17,5.17,0,0,1-3.45,1.36C219.09,415.71,216.93,413.66,216.93,410.13Z"/><path class="cls-12" d="M226.45,410.13c0-3.56,2.33-5.61,4.94-5.61s4.94,2.05,4.94,5.61-2.33,5.58-4.94,5.58S226.45,413.66,226.45,410.13Zm8,0c0-2.44-1.25-4.1-3.08-4.1s-3.07,1.66-3.07,4.1,1.24,4.08,3.07,4.08S234.47,412.57,234.47,410.13Z"/><path class="cls-12" d="M239.13,404.79h1.49l.15,1.54h.06a4.79,4.79,0,0,1,3.32-1.81,2.81,2.81,0,0,1,2.94,2c1.11-1.2,2.22-2,3.52-2,2.19,0,3.24,1.45,3.24,4.17v6.76h-1.8v-6.52c0-2-.63-2.84-2-2.84a3.91,3.91,0,0,0-2.67,1.64v7.72h-1.8v-6.52c0-2-.63-2.84-2-2.84a4,4,0,0,0-2.68,1.64v7.72h-1.8Z"/><path d="M426.69,201.46h1.88v6.21h6.9v-6.21h1.89v14.83h-1.89v-7h-6.9v7h-1.88Z"/><path d="M440.56,213.44c0-2.4,2.07-3.59,6.75-4.1,0-1.41-.48-2.78-2.27-2.78a6.08,6.08,0,0,0-3.27,1.18l-.73-1.27a8,8,0,0,1,4.31-1.44c2.68,0,3.82,1.78,3.82,4.52v6.74h-1.54l-.16-1.31h-.06a5.82,5.82,0,0,1-3.63,1.58A3,3,0,0,1,440.56,213.44Zm6.75.17v-3.05c-3.68.44-4.93,1.34-4.93,2.75,0,1.24.85,1.75,1.93,1.75A4.52,4.52,0,0,0,447.31,213.61Z"/><path d="M451.54,220.8l.36-1.48a3.06,3.06,0,0,0,.84.16c1.24,0,2-1,2.48-2.36l.25-.81-4.41-11H453l2.24,6.09c.34,1,.71,2.07,1.07,3.09h.09c.31-1,.62-2.12.92-3.09l2-6.09h1.82l-4.14,11.89c-.77,2.18-1.91,3.83-4.11,3.83A3.69,3.69,0,0,1,451.54,220.8Z"/><path d="M463.21,205.3h2.14l2.16,5.15c.33.92.67,1.8,1,2.68h.09c.34-.88.7-1.76,1-2.68l2.09-5.15h2.13v11h-1.69v-4.94c0-1,.13-2.64.21-3.78h-.09c-.32.87-.7,1.78-1,2.6l-2.08,5.08h-1.23l-2.13-5.08c-.31-.82-.7-1.75-1-2.6h-.09c.07,1.14.2,2.81.2,3.78v4.94h-1.67Z"/><path d="M481.35,208.82c0-4.75,2.62-7.63,6.34-7.63s6.34,2.89,6.34,7.63-2.61,7.74-6.34,7.74S481.35,213.57,481.35,208.82Zm10.73,0c0-3.69-1.74-6-4.39-6s-4.39,2.28-4.39,6,1.74,6.08,4.39,6.08S492.08,212.51,492.08,208.82Z"/><path d="M498.79,210.56l-3.32-5.26h2l1.47,2.41c.34.61.71,1.23,1.08,1.83h.09l1-1.83,1.34-2.41h1.94l-3.32,5.45,3.59,5.54h-2L501,213.74c-.38-.67-.78-1.34-1.19-2h-.09c-.38.64-.74,1.31-1.11,2l-1.49,2.55H495.2Z"/><path d="M506.83,205.3h1.53l.16,1.27h.06a5.81,5.81,0,0,1,3.5-1.54c2.84,0,4.36,2.21,4.36,5.6,0,3.74-2.25,5.93-4.76,5.93a4.94,4.94,0,0,1-3-1.27l.05,1.92v3.71h-1.86Zm7.69,5.35c0-2.43-.83-4.05-2.9-4.05a4.48,4.48,0,0,0-2.93,1.5v5.75a4.25,4.25,0,0,0,2.67,1.15C513.18,215,514.52,213.36,514.52,210.65Z"/><path d="M519.36,205.3h1.81v4.57c0,1.17-.09,2.64-.17,4.06h.08c.41-.68,1.06-1.68,1.46-2.35l4.15-6.28h1.73v11h-1.81v-4.57c0-1.16.1-2.63.18-4.05h-.09c-.41.67-1.05,1.69-1.45,2.35l-4.16,6.27h-1.73Z"/><path d="M532.5,220.18h-1.6l-.19-4.23v-1.18H541.8V216l-.19,4.23H540v-3.89H532.5Zm5.85-13.36h-3.51l-.42,3.71c-.47,4.06-1.56,5.1-2.75,5.33l-.42-1.09c.61-.32,1.1-1.06,1.54-4.6l.58-4.87h6.83v10.43h-1.85Z"/><path d="M543.33,210.81c0-3.66,2.48-5.78,5.29-5.78a4.62,4.62,0,0,1,3.21,1.29l-1,1.23a3.16,3.16,0,0,0-2.18-1c-2,0-3.45,1.71-3.45,4.23s1.38,4.2,3.4,4.2a4,4,0,0,0,2.58-1.09l.81,1.24a5.36,5.36,0,0,1-3.55,1.4C545.56,216.56,543.33,214.45,543.33,210.81Z"/><path d="M554.45,205.3h1.86v4.52h3.08l4.17,6.47h-2l-3-4.95h-2.15v4.95h-1.86Zm3.62,5.32,1.44-3.24c.84-1.92,1.69-2.35,2.88-2.35a1.64,1.64,0,0,1,.65.13l-.33,1.74a.85.85,0,0,0-.36-.06c-.58,0-1,.2-1.59,1.51l-1.11,2.58Z"/><path d="M565.71,205.3h1.81v4.57c0,1.17-.1,2.64-.18,4.06h.09c.41-.68,1.05-1.68,1.45-2.35L573,205.3h1.72v11H573v-4.57c0-1.16.1-2.63.19-4.05h-.09c-.41.67-1,1.69-1.45,2.35l-4.17,6.27h-1.72Z"/><path d="M582.34,209.63c0-7.43,2.7-8.59,6.88-9.22a6.49,6.49,0,0,0,2.28-.62l.38,1.69a5.63,5.63,0,0,1-2.27.7c-4.06.62-5.48.93-5.48,7.8,0,3.18,1.14,5,3.37,5,1.7,0,2.92-1.68,2.92-4.16,0-2.27-1-3.7-2.95-3.7a4.18,4.18,0,0,0-3.37,2l-.06-1.39a4.82,4.82,0,0,1,3.9-2.07c2.6,0,4.4,1.93,4.4,5.14,0,3.49-2.16,5.71-4.82,5.71C584.23,216.56,582.34,214.06,582.34,209.63Z"/><path d="M595.29,205.3h1.53l.16,1.27H597a5.81,5.81,0,0,1,3.5-1.54c2.84,0,4.36,2.21,4.36,5.6,0,3.74-2.25,5.93-4.76,5.93a4.94,4.94,0,0,1-3-1.27l0,1.92v3.71h-1.86Zm7.69,5.35c0-2.43-.83-4.05-2.9-4.05a4.48,4.48,0,0,0-2.93,1.5v5.75a4.25,4.25,0,0,0,2.67,1.15C601.64,215,603,213.36,603,210.65Z"/><path d="M607.21,215.15a1.35,1.35,0,1,1,1.35,1.41A1.36,1.36,0,0,1,607.21,215.15Z"/><path d="M617.67,214.74H621V204.13h-2.63v-1.2a9,9,0,0,0,3.07-1.05h1.41v12.86h3v1.55h-8.14Z"/><path d="M628.91,214.74h3.3V204.13h-2.63v-1.2a8.87,8.87,0,0,0,3.07-1.05h1.42v12.86h3v1.55h-8.13Z"/><path d="M646.53,203.47h-7.17v-1.59h9.29V203c-3.42,4.37-4.12,7.65-4.36,13.28h-1.92C642.61,210.86,643.7,207.43,646.53,203.47Z"/><path d="M461.41,235.94c0-4.75,2.62-7.63,6.34-7.63s6.34,2.89,6.34,7.63-2.61,7.74-6.34,7.74S461.41,240.69,461.41,235.94Zm10.73,0c0-3.69-1.74-6-4.39-6s-4.39,2.28-4.39,6,1.74,6.08,4.39,6.08S472.14,239.64,472.14,235.94Z"/><path d="M478.85,237.68l-3.32-5.25h2l1.47,2.41c.34.6.71,1.22,1.08,1.83h.09c.33-.61.66-1.23,1-1.83l1.34-2.41h1.94l-3.32,5.44,3.59,5.54h-2l-1.62-2.55c-.38-.66-.78-1.34-1.19-2h-.09c-.38.63-.74,1.3-1.11,2l-1.49,2.55h-1.94Z"/><path d="M486.89,232.43h1.53l.16,1.26h.06a5.81,5.81,0,0,1,3.5-1.54c2.84,0,4.36,2.21,4.36,5.6,0,3.75-2.25,5.93-4.76,5.93a4.94,4.94,0,0,1-3-1.27l.05,1.92V248h-1.86Zm7.69,5.34c0-2.43-.83-4.05-2.9-4.05a4.48,4.48,0,0,0-2.93,1.5V241a4.29,4.29,0,0,0,2.67,1.14C493.24,242.12,494.58,240.48,494.58,237.77Z"/><path d="M499.42,232.43h1.81V237c0,1.17-.09,2.64-.17,4.06h.08c.41-.68,1.06-1.68,1.46-2.35l4.15-6.27h1.73v11h-1.81v-4.57c0-1.16.09-2.63.18-4.05h-.09c-.41.68-1.05,1.69-1.45,2.35l-4.16,6.27h-1.73Z"/><path d="M512.56,247.3H511l-.19-4.23V241.9h11.09v1.17l-.19,4.23h-1.6v-3.89h-7.51Zm5.85-13.36H514.9l-.42,3.71c-.47,4.06-1.56,5.11-2.75,5.33l-.42-1.08c.61-.33,1.1-1.07,1.54-4.61l.58-4.86h6.83v10.42h-1.85Z"/><path d="M523.88,246.16a3,3,0,0,0,2-2.8l-.2-1.67.91,1.35a1.14,1.14,0,0,1-.94.39,1.25,1.25,0,0,1-1.34-1.3,1.29,1.29,0,0,1,1.37-1.29c1,0,1.58.82,1.58,2.18a4.5,4.5,0,0,1-3,4.23Z"/><path d="M535,228.58h2.27l2.84,7.92c.36,1,.7,2.06,1.06,3.09h.09c.35-1,.67-2.07,1-3.09l2.81-7.92h2.28v14.83H545.6v-8.17c0-1.29.15-3.07.24-4.38h-.09l-1.18,3.38-2.79,7.67h-1.25l-2.81-7.67-1.17-3.38h-.09c.09,1.31.24,3.09.24,4.38v8.17H535Z"/><path d="M550.56,240.56c0-2.39,2.06-3.59,6.74-4.1,0-1.41-.47-2.77-2.26-2.77a6.11,6.11,0,0,0-3.28,1.17l-.73-1.27a8.12,8.12,0,0,1,4.32-1.44c2.68,0,3.81,1.79,3.81,4.52v6.74h-1.53l-.16-1.31h-.06a5.84,5.84,0,0,1-3.63,1.58A3,3,0,0,1,550.56,240.56Zm6.74.17v-3c-3.68.44-4.92,1.34-4.92,2.75,0,1.25.85,1.75,1.92,1.75A4.48,4.48,0,0,0,557.3,240.73Z"/><path d="M562.64,232.43h1.86V237h3.08l4.17,6.46h-2l-3.06-4.95H564.5v4.95h-1.86Zm3.62,5.31,1.44-3.24c.85-1.92,1.69-2.35,2.88-2.35a1.6,1.6,0,0,1,.65.13L570.9,234a1,1,0,0,0-.36-.06c-.57,0-1,.21-1.59,1.51l-1.11,2.58Z"/><path d="M572.7,237.93c0-3.57,2.41-5.78,4.94-5.78,2.8,0,4.38,2,4.38,5.16a6.24,6.24,0,0,1-.08,1.05h-7.4c.13,2.33,1.55,3.84,3.65,3.84a4.78,4.78,0,0,0,2.73-.88l.67,1.22a6.5,6.5,0,0,1-3.63,1.14C575,243.68,572.7,241.54,572.7,237.93Zm7.68-.9c0-2.2-1-3.39-2.71-3.39-1.54,0-2.92,1.24-3.15,3.39Z"/><path d="M585.1,247.3h-1.61l-.19-4.23V241.9h11.09v1.17l-.19,4.23h-1.6v-3.89h-7.5Zm5.84-13.36h-3.51l-.42,3.71c-.47,4.06-1.56,5.11-2.75,5.33l-.42-1.08c.61-.33,1.1-1.07,1.54-4.61l.58-4.86h6.84v10.42h-1.86Z"/><path d="M595.92,237.93c0-3.66,2.4-5.78,5.09-5.78s5.1,2.12,5.1,5.78-2.4,5.75-5.1,5.75S595.92,241.57,595.92,237.93Zm8.26,0c0-2.51-1.28-4.23-3.17-4.23s-3.16,1.72-3.16,4.23,1.28,4.2,3.16,4.2S604.18,240.45,604.18,237.93Z"/><path d="M609,232.43h1.86v4.45h5.28v-4.45H618v11h-1.86v-4.88h-5.28v4.88H609Z"/><path d="M621.7,232.43h1.81V237c0,1.17-.09,2.64-.17,4.06h.08c.41-.68,1.06-1.68,1.46-2.35l4.15-6.27h1.73v11H629v-4.57c0-1.16.09-2.63.18-4.05H629c-.41.68-1,1.69-1.45,2.35l-4.16,6.27H621.7Z"/><path d="M631.72,248l.36-1.42a3.58,3.58,0,0,0,1,.19c1.09,0,1.35-.82,1.35-2.16V232.43h1.86v12.22c0,2.25-.82,3.67-3,3.67A4.46,4.46,0,0,1,631.72,248ZM634.14,229a1.29,1.29,0,0,1,2.57,0,1.29,1.29,0,0,1-2.57,0Z"/><path d="M639.37,240.56c0-2.39,2.06-3.59,6.75-4.1,0-1.41-.48-2.77-2.27-2.77a6.11,6.11,0,0,0-3.28,1.17l-.72-1.27a8.08,8.08,0,0,1,4.31-1.44c2.68,0,3.81,1.79,3.81,4.52v6.74h-1.53l-.16-1.31h-.06a5.84,5.84,0,0,1-3.63,1.58A3,3,0,0,1,639.37,240.56Zm6.75.17v-3c-3.69.44-4.93,1.34-4.93,2.75,0,1.25.85,1.75,1.93,1.75A4.52,4.52,0,0,0,646.12,240.73Z"/><path d="M474.31,359.12H470.2v-1.4h4.11v-4.41h1.48v4.41h4.11v1.4h-4.11v4.41h-1.48Z"/><path d="M481.26,364.12l.94-1.21a4.89,4.89,0,0,0,3.68,1.69c1.75,0,3-1,3-2.64s-1.18-2.86-4.6-2.86v-1.42c3.05,0,4.09-1.18,4.09-2.69a2.22,2.22,0,0,0-2.49-2.28,4.33,4.33,0,0,0-3.07,1.46l-1-1.18a6,6,0,0,1,4.15-1.79c2.5,0,4.31,1.33,4.31,3.66a3.56,3.56,0,0,1-2.62,3.42v.09a3.75,3.75,0,0,1,3.13,3.66c0,2.57-2.12,4.12-4.76,4.12A6.09,6.09,0,0,1,481.26,364.12Z"/><path d="M492.82,362.19a4.55,4.55,0,0,1,2.72-3.87v-.09a4.1,4.1,0,0,1-2-3.34c0-2.21,1.76-3.69,4.08-3.69a3.73,3.73,0,0,1,4.07,3.83,4.71,4.71,0,0,1-2,3.48v.09c1.29.76,2.51,1.77,2.51,3.7,0,2.16-1.86,3.85-4.64,3.85S492.82,364.48,492.82,362.19Zm7.6.06c0-1.87-1.82-2.53-3.9-3.37a3.87,3.87,0,0,0-2,3.14,2.85,2.85,0,0,0,3.09,2.75A2.56,2.56,0,0,0,500.42,362.25Zm-.34-7.12a2.4,2.4,0,0,0-2.51-2.55,2.23,2.23,0,0,0-2.34,2.31c0,1.72,1.6,2.45,3.33,3.13A3.88,3.88,0,0,0,500.08,355.13Z"/><path d="M504.29,364.63l1-1.16a3.16,3.16,0,0,0,2.37,1.13c2.08,0,3.81-1.64,3.81-6.47,0-3.55-1.15-5.47-3.22-5.47-1.41,0-2.51,1.26-2.51,3.16s.89,3.06,2.67,3.06a3.94,3.94,0,0,0,3.1-2l.06,1.47a4.6,4.6,0,0,1-3.47,2c-2.5,0-4.11-1.5-4.11-4.46a4.34,4.34,0,0,1,4.26-4.62c2.84,0,5,2.3,5,6.93,0,5.79-2.62,8-5.49,8A4.6,4.6,0,0,1,504.29,364.63Z"/><path d="M520.74,359.6a18.9,18.9,0,0,1,3-10.27l1.16.54a19.57,19.57,0,0,0,0,19.46l-1.16.53A18.84,18.84,0,0,1,520.74,359.6Z"/><path d="M526.73,358.62c0-4.83,1.75-7.42,4.62-7.42s4.62,2.6,4.62,7.42-1.74,7.53-4.62,7.53S526.73,363.45,526.73,358.62Zm7.44,0c0-4.22-1.14-5.93-2.82-5.93s-2.81,1.71-2.81,5.93,1.14,6,2.81,6S534.17,362.85,534.17,358.62Z"/><path d="M537.83,369.33a19.57,19.57,0,0,0,0-19.46l1.16-.54a19.17,19.17,0,0,1,0,20.53Z"/><path d="M556.51,353.07h-7.17v-1.6h9.29v1.14c-3.42,4.36-4.12,7.65-4.37,13.27h-1.91C552.59,360.45,553.67,357,556.51,353.07Z"/><path d="M560.13,364.18l.92-1.22a4.89,4.89,0,0,0,3.63,1.64,3.09,3.09,0,0,0,3.15-3.28,2.88,2.88,0,0,0-3.05-3.16,4,4,0,0,0-2.48.87l-1-.62.47-6.94H569v1.6h-5.58l-.38,4.27a4.41,4.41,0,0,1,2.21-.59,4.15,4.15,0,0,1,4.47,4.51,4.72,4.72,0,0,1-4.85,4.89A6.33,6.33,0,0,1,560.13,364.18Z"/><path d="M576.23,364.78c4.33-4.32,6.78-6.91,6.78-9.26a2.54,2.54,0,0,0-2.73-2.81,4.18,4.18,0,0,0-3.07,1.73l-1.08-1.05a5.66,5.66,0,0,1,4.37-2.19,4,4,0,0,1,4.33,4.24c0,2.71-2.48,5.39-5.88,9,.78-.06,1.67-.13,2.42-.13h4.17v1.6h-9.31Z"/><path d="M593.43,356.22c0-.76.06-2,.11-2.76h-.09c-.37.69-.77,1.32-1.18,2l-3.37,4.93h8.25v1.48H587v-1.23l6.16-9.2h2.07v14.41h-1.76Z"/><path d="M599,364.63l1-1.16a3.16,3.16,0,0,0,2.37,1.13c2.08,0,3.81-1.64,3.81-6.47,0-3.55-1.15-5.47-3.22-5.47-1.41,0-2.51,1.26-2.51,3.16s.89,3.06,2.67,3.06a3.92,3.92,0,0,0,3.1-2l.07,1.47a4.63,4.63,0,0,1-3.48,2c-2.5,0-4.11-1.5-4.11-4.46A4.35,4.35,0,0,1,603,351.2c2.84,0,5,2.3,5,6.93,0,5.79-2.62,8-5.49,8A4.56,4.56,0,0,1,599,364.63Z"/><path d="M610,359.5h5.19v1.43H610Z"/><path d="M617.06,364.63l1-1.16a3.16,3.16,0,0,0,2.37,1.13c2.08,0,3.81-1.64,3.81-6.47,0-3.55-1.15-5.47-3.22-5.47-1.41,0-2.5,1.26-2.5,3.16s.88,3.06,2.66,3.06a3.92,3.92,0,0,0,3.1-2l.07,1.47a4.63,4.63,0,0,1-3.48,2c-2.5,0-4.11-1.5-4.11-4.46a4.35,4.35,0,0,1,4.26-4.62c2.84,0,5,2.3,5,6.93,0,5.79-2.62,8-5.5,8A4.56,4.56,0,0,1,617.06,364.63Z"/><path d="M635.3,353.07h-7.18v-1.6h9.29v1.14c-3.41,4.36-4.12,7.65-4.36,13.27h-1.91C631.38,360.45,632.46,357,635.3,353.07Z"/><path d="M639.52,364.63l1-1.16a3.16,3.16,0,0,0,2.37,1.13c2.08,0,3.81-1.64,3.81-6.47,0-3.55-1.15-5.47-3.22-5.47-1.41,0-2.51,1.26-2.51,3.16s.88,3.06,2.67,3.06a3.92,3.92,0,0,0,3.1-2l.06,1.47a4.6,4.6,0,0,1-3.47,2c-2.5,0-4.11-1.5-4.11-4.46a4.34,4.34,0,0,1,4.26-4.62c2.84,0,5,2.3,5,6.93,0,5.79-2.62,8-5.49,8A4.6,4.6,0,0,1,639.52,364.63Z"/><path class="cls-13" d="M39.78,11A28.34,28.34,0,0,0,11.44,39.35V354.71H276V11Z"/><path class="cls-14" d="M39.78,11A28.34,28.34,0,0,0,11.44,39.35V354.71H276V11Z"/><rect class="cls-12" x="81.37" y="114.1" width="123" height="123"/><rect x="86.29" y="119.02" width="4.51" height="4.51"/><rect x="90.8" y="119.02" width="4.51" height="4.51"/><rect x="95.31" y="119.02" width="4.51" height="4.51"/><rect x="99.82" y="119.02" width="4.51" height="4.51"/><rect x="104.33" y="119.02" width="4.51" height="4.51"/><rect x="108.84" y="119.02" width="4.51" height="4.51"/><rect x="113.35" y="119.02" width="4.51" height="4.51"/><rect x="126.88" y="119.02" width="4.51" height="4.51"/><rect x="144.92" y="119.02" width="4.51" height="4.51"/><rect x="158.45" y="119.02" width="4.51" height="4.51"/><rect x="167.47" y="119.02" width="4.51" height="4.51"/><rect x="171.98" y="119.02" width="4.51" height="4.51"/><rect x="176.49" y="119.02" width="4.51" height="4.51"/><rect x="181" y="119.02" width="4.51" height="4.51"/><rect x="185.51" y="119.02" width="4.51" height="4.51"/><rect x="190.02" y="119.02" width="4.51" height="4.51"/><rect x="194.53" y="119.02" width="4.51" height="4.51"/><rect x="86.29" y="123.53" width="4.51" height="4.51"/><rect x="113.35" y="123.53" width="4.51" height="4.51"/><rect x="122.37" y="123.53" width="4.51" height="4.51"/><rect x="126.88" y="123.53" width="4.51" height="4.51"/><rect x="135.9" y="123.53" width="4.51" height="4.51"/><rect x="140.41" y="123.53" width="4.51" height="4.51"/><rect x="149.43" y="123.53" width="4.51" height="4.51"/><rect x="153.94" y="123.53" width="4.51" height="4.51"/><rect x="167.47" y="123.53" width="4.51" height="4.51"/><rect x="194.53" y="123.53" width="4.51" height="4.51"/><rect x="86.29" y="128.04" width="4.51" height="4.51"/><rect x="95.31" y="128.04" width="4.51" height="4.51"/><rect x="99.82" y="128.04" width="4.51" height="4.51"/><rect x="104.33" y="128.04" width="4.51" height="4.51"/><rect x="113.35" y="128.04" width="4.51" height="4.51"/><rect x="126.88" y="128.04" width="4.51" height="4.51"/><rect x="131.39" y="128.04" width="4.51" height="4.51"/><rect x="135.9" y="128.04" width="4.51" height="4.51"/><rect x="153.94" y="128.04" width="4.51" height="4.51"/><rect x="167.47" y="128.04" width="4.51" height="4.51"/><rect x="176.49" y="128.04" width="4.51" height="4.51"/><rect x="181" y="128.04" width="4.51" height="4.51"/><rect x="185.51" y="128.04" width="4.51" height="4.51"/><rect x="194.53" y="128.04" width="4.51" height="4.51"/><rect x="86.29" y="132.55" width="4.51" height="4.51"/><rect x="95.31" y="132.55" width="4.51" height="4.51"/><rect x="99.82" y="132.55" width="4.51" height="4.51"/><rect x="104.33" y="132.55" width="4.51" height="4.51"/><rect x="113.35" y="132.55" width="4.51" height="4.51"/><rect x="122.37" y="132.55" width="4.51" height="4.51"/><rect x="126.88" y="132.55" width="4.51" height="4.51"/><rect x="135.9" y="132.55" width="4.51" height="4.51"/><rect x="144.92" y="132.55" width="4.51" height="4.51"/><rect x="149.43" y="132.55" width="4.51" height="4.51"/><rect x="153.94" y="132.55" width="4.51" height="4.51"/><rect x="158.45" y="132.55" width="4.51" height="4.51"/><rect x="167.47" y="132.55" width="4.51" height="4.51"/><rect x="176.49" y="132.55" width="4.51" height="4.51"/><rect x="181" y="132.55" width="4.51" height="4.51"/><rect x="185.51" y="132.55" width="4.51" height="4.51"/><rect x="194.53" y="132.55" width="4.51" height="4.51"/><rect x="86.29" y="137.06" width="4.51" height="4.51"/><rect x="95.31" y="137.06" width="4.51" height="4.51"/><rect x="99.82" y="137.06" width="4.51" height="4.51"/><rect x="104.33" y="137.06" width="4.51" height="4.51"/><rect x="113.35" y="137.06" width="4.51" height="4.51"/><rect x="131.39" y="137.06" width="4.51" height="4.51"/><rect x="140.41" y="137.06" width="4.51" height="4.51"/><rect x="149.43" y="137.06" width="4.51" height="4.51"/><rect x="158.45" y="137.06" width="4.51" height="4.51"/><rect x="167.47" y="137.06" width="4.51" height="4.51"/><rect x="176.49" y="137.06" width="4.51" height="4.51"/><rect x="181" y="137.06" width="4.51" height="4.51"/><rect x="185.51" y="137.06" width="4.51" height="4.51"/><rect x="194.53" y="137.06" width="4.51" height="4.51"/><rect x="86.29" y="141.57" width="4.51" height="4.51"/><rect x="113.35" y="141.57" width="4.51" height="4.51"/><rect x="122.37" y="141.57" width="4.51" height="4.51"/><rect x="131.39" y="141.57" width="4.51" height="4.51"/><rect x="149.43" y="141.57" width="4.51" height="4.51"/><rect x="153.94" y="141.57" width="4.51" height="4.51"/><rect x="158.45" y="141.57" width="4.51" height="4.51"/><rect x="167.47" y="141.57" width="4.51" height="4.51"/><rect x="194.53" y="141.57" width="4.51" height="4.51"/><rect x="86.29" y="146.08" width="4.51" height="4.51"/><rect x="90.8" y="146.08" width="4.51" height="4.51"/><rect x="95.31" y="146.08" width="4.51" height="4.51"/><rect x="99.82" y="146.08" width="4.51" height="4.51"/><rect x="104.33" y="146.08" width="4.51" height="4.51"/><rect x="108.84" y="146.08" width="4.51" height="4.51"/><rect x="113.35" y="146.08" width="4.51" height="4.51"/><rect x="122.37" y="146.08" width="4.51" height="4.51"/><rect x="131.39" y="146.08" width="4.51" height="4.51"/><rect x="140.41" y="146.08" width="4.51" height="4.51"/><rect x="149.43" y="146.08" width="4.51" height="4.51"/><rect x="158.45" y="146.08" width="4.51" height="4.51"/><rect x="167.47" y="146.08" width="4.51" height="4.51"/><rect x="171.98" y="146.08" width="4.51" height="4.51"/><rect x="176.49" y="146.08" width="4.51" height="4.51"/><rect x="181" y="146.08" width="4.51" height="4.51"/><rect x="185.51" y="146.08" width="4.51" height="4.51"/><rect x="190.02" y="146.08" width="4.51" height="4.51"/><rect x="194.53" y="146.08" width="4.51" height="4.51"/><rect x="140.41" y="150.59" width="4.51" height="4.51"/><rect x="149.43" y="150.59" width="4.51" height="4.51"/><rect x="158.45" y="150.59" width="4.51" height="4.51"/><rect x="86.29" y="155.1" width="4.51" height="4.51"/><rect x="90.8" y="155.1" width="4.51" height="4.51"/><rect x="95.31" y="155.1" width="4.51" height="4.51"/><rect x="99.82" y="155.1" width="4.51" height="4.51"/><rect x="104.33" y="155.1" width="4.51" height="4.51"/><rect x="113.35" y="155.1" width="4.51" height="4.51"/><rect x="117.86" y="155.1" width="4.51" height="4.51"/><rect x="122.37" y="155.1" width="4.51" height="4.51"/><rect x="126.88" y="155.1" width="4.51" height="4.51"/><rect x="131.39" y="155.1" width="4.51" height="4.51"/><rect x="140.41" y="155.1" width="4.51" height="4.51"/><rect x="144.92" y="155.1" width="4.51" height="4.51"/><rect x="149.43" y="155.1" width="4.51" height="4.51"/><rect x="162.96" y="155.1" width="4.51" height="4.51"/><rect x="171.98" y="155.1" width="4.51" height="4.51"/><rect x="181" y="155.1" width="4.51" height="4.51"/><rect x="190.02" y="155.1" width="4.51" height="4.51"/><rect x="90.8" y="159.61" width="4.51" height="4.51"/><rect x="99.82" y="159.61" width="4.51" height="4.51"/><rect x="104.33" y="159.61" width="4.51" height="4.51"/><rect x="108.84" y="159.61" width="4.51" height="4.51"/><rect x="117.86" y="159.61" width="4.51" height="4.51"/><rect x="122.37" y="159.61" width="4.51" height="4.51"/><rect x="126.88" y="159.61" width="4.51" height="4.51"/><rect x="149.43" y="159.61" width="4.51" height="4.51"/><rect x="158.45" y="159.61" width="4.51" height="4.51"/><rect x="162.96" y="159.61" width="4.51" height="4.51"/><rect x="171.98" y="159.61" width="4.51" height="4.51"/><rect x="190.02" y="159.61" width="4.51" height="4.51"/><rect x="86.29" y="164.12" width="4.51" height="4.51"/><rect x="90.8" y="164.12" width="4.51" height="4.51"/><rect x="95.31" y="164.12" width="4.51" height="4.51"/><rect x="113.35" y="164.12" width="4.51" height="4.51"/><rect x="117.86" y="164.12" width="4.51" height="4.51"/><rect x="126.88" y="164.12" width="4.51" height="4.51"/><rect x="135.9" y="164.12" width="4.51" height="4.51"/><rect x="140.41" y="164.12" width="4.51" height="4.51"/><rect x="144.92" y="164.12" width="4.51" height="4.51"/><rect x="153.94" y="164.12" width="4.51" height="4.51"/><rect x="167.47" y="164.12" width="4.51" height="4.51"/><rect x="171.98" y="164.12" width="4.51" height="4.51"/><rect x="181" y="164.12" width="4.51" height="4.51"/><rect x="190.02" y="164.12" width="4.51" height="4.51"/><rect x="194.53" y="164.12" width="4.51" height="4.51"/><rect x="104.33" y="168.63" width="4.51" height="4.51"/><rect x="108.84" y="168.63" width="4.51" height="4.51"/><rect x="122.37" y="168.63" width="4.51" height="4.51"/><rect x="126.88" y="168.63" width="4.51" height="4.51"/><rect x="131.39" y="168.63" width="4.51" height="4.51"/><rect x="135.9" y="168.63" width="4.51" height="4.51"/><rect x="149.43" y="168.63" width="4.51" height="4.51"/><rect x="153.94" y="168.63" width="4.51" height="4.51"/><rect x="158.45" y="168.63" width="4.51" height="4.51"/><rect x="171.98" y="168.63" width="4.51" height="4.51"/><rect x="194.53" y="168.63" width="4.51" height="4.51"/><rect x="86.29" y="173.14" width="4.51" height="4.51"/><rect x="95.31" y="173.14" width="4.51" height="4.51"/><rect x="99.82" y="173.14" width="4.51" height="4.51"/><rect x="104.33" y="173.14" width="4.51" height="4.51"/><rect x="108.84" y="173.14" width="4.51" height="4.51"/><rect x="113.35" y="173.14" width="4.51" height="4.51"/><rect x="122.37" y="173.14" width="4.51" height="4.51"/><rect x="126.88" y="173.14" width="4.51" height="4.51"/><rect x="135.9" y="173.14" width="4.51" height="4.51"/><rect x="144.92" y="173.14" width="4.51" height="4.51"/><rect x="153.94" y="173.14" width="4.51" height="4.51"/><rect x="158.45" y="173.14" width="4.51" height="4.51"/><rect x="162.96" y="173.14" width="4.51" height="4.51"/><rect x="167.47" y="173.14" width="4.51" height="4.51"/><rect x="176.49" y="173.14" width="4.51" height="4.51"/><rect x="185.51" y="173.14" width="4.51" height="4.51"/><rect x="190.02" y="173.14" width="4.51" height="4.51"/><rect x="194.53" y="173.14" width="4.51" height="4.51"/><rect x="86.29" y="177.65" width="4.51" height="4.51"/><rect x="95.31" y="177.65" width="4.51" height="4.51"/><rect x="99.82" y="177.65" width="4.51" height="4.51"/><rect x="117.86" y="177.65" width="4.51" height="4.51"/><rect x="126.88" y="177.65" width="4.51" height="4.51"/><rect x="131.39" y="177.65" width="4.51" height="4.51"/><rect x="140.41" y="177.65" width="4.51" height="4.51"/><rect x="144.92" y="177.65" width="4.51" height="4.51"/><rect x="158.45" y="177.65" width="4.51" height="4.51"/><rect x="171.98" y="177.65" width="4.51" height="4.51"/><rect x="181" y="177.65" width="4.51" height="4.51"/><rect x="190.02" y="177.65" width="4.51" height="4.51"/><rect x="86.29" y="182.16" width="4.51" height="4.51"/><rect x="95.31" y="182.16" width="4.51" height="4.51"/><rect x="99.82" y="182.16" width="4.51" height="4.51"/><rect x="113.35" y="182.16" width="4.51" height="4.51"/><rect x="117.86" y="182.16" width="4.51" height="4.51"/><rect x="122.37" y="182.16" width="4.51" height="4.51"/><rect x="126.88" y="182.16" width="4.51" height="4.51"/><rect x="144.92" y="182.16" width="4.51" height="4.51"/><rect x="149.43" y="182.16" width="4.51" height="4.51"/><rect x="153.94" y="182.16" width="4.51" height="4.51"/><rect x="158.45" y="182.16" width="4.51" height="4.51"/><rect x="162.96" y="182.16" width="4.51" height="4.51"/><rect x="167.47" y="182.16" width="4.51" height="4.51"/><rect x="181" y="182.16" width="4.51" height="4.51"/><rect x="190.02" y="182.16" width="4.51" height="4.51"/><rect x="194.53" y="182.16" width="4.51" height="4.51"/><rect x="86.29" y="186.67" width="4.51" height="4.51"/><rect x="104.33" y="186.67" width="4.51" height="4.51"/><rect x="108.84" y="186.67" width="4.51" height="4.51"/><rect x="131.39" y="186.67" width="4.51" height="4.51"/><rect x="140.41" y="186.67" width="4.51" height="4.51"/><rect x="153.94" y="186.67" width="4.51" height="4.51"/><rect x="158.45" y="186.67" width="4.51" height="4.51"/><rect x="162.96" y="186.67" width="4.51" height="4.51"/><rect x="167.47" y="186.67" width="4.51" height="4.51"/><rect x="171.98" y="186.67" width="4.51" height="4.51"/><rect x="181" y="186.67" width="4.51" height="4.51"/><rect x="194.53" y="186.67" width="4.51" height="4.51"/><rect x="86.29" y="191.18" width="4.51" height="4.51"/><rect x="95.31" y="191.18" width="4.51" height="4.51"/><rect x="99.82" y="191.18" width="4.51" height="4.51"/><rect x="108.84" y="191.18" width="4.51" height="4.51"/><rect x="113.35" y="191.18" width="4.51" height="4.51"/><rect x="122.37" y="191.18" width="4.51" height="4.51"/><rect x="126.88" y="191.18" width="4.51" height="4.51"/><rect x="131.39" y="191.18" width="4.51" height="4.51"/><rect x="140.41" y="191.18" width="4.51" height="4.51"/><rect x="144.92" y="191.18" width="4.51" height="4.51"/><rect x="149.43" y="191.18" width="4.51" height="4.51"/><rect x="153.94" y="191.18" width="4.51" height="4.51"/><rect x="158.45" y="191.18" width="4.51" height="4.51"/><rect x="162.96" y="191.18" width="4.51" height="4.51"/><rect x="167.47" y="191.18" width="4.51" height="4.51"/><rect x="171.98" y="191.18" width="4.51" height="4.51"/><rect x="176.49" y="191.18" width="4.51" height="4.51"/><rect x="185.51" y="191.18" width="4.51" height="4.51"/><rect x="122.37" y="195.69" width="4.51" height="4.51"/><rect x="131.39" y="195.69" width="4.51" height="4.51"/><rect x="158.45" y="195.69" width="4.51" height="4.51"/><rect x="176.49" y="195.69" width="4.51" height="4.51"/><rect x="181" y="195.69" width="4.51" height="4.51"/><rect x="185.51" y="195.69" width="4.51" height="4.51"/><rect x="86.29" y="200.2" width="4.51" height="4.51"/><rect x="90.8" y="200.2" width="4.51" height="4.51"/><rect x="95.31" y="200.2" width="4.51" height="4.51"/><rect x="99.82" y="200.2" width="4.51" height="4.51"/><rect x="104.33" y="200.2" width="4.51" height="4.51"/><rect x="108.84" y="200.2" width="4.51" height="4.51"/><rect x="113.35" y="200.2" width="4.51" height="4.51"/><rect x="122.37" y="200.2" width="4.51" height="4.51"/><rect x="135.9" y="200.2" width="4.51" height="4.51"/><rect x="140.41" y="200.2" width="4.51" height="4.51"/><rect x="144.92" y="200.2" width="4.51" height="4.51"/><rect x="158.45" y="200.2" width="4.51" height="4.51"/><rect x="167.47" y="200.2" width="4.51" height="4.51"/><rect x="176.49" y="200.2" width="4.51" height="4.51"/><rect x="181" y="200.2" width="4.51" height="4.51"/><rect x="185.51" y="200.2" width="4.51" height="4.51"/><rect x="190.02" y="200.2" width="4.51" height="4.51"/><rect x="194.53" y="200.2" width="4.51" height="4.51"/><rect x="86.29" y="204.71" width="4.51" height="4.51"/><rect x="113.35" y="204.71" width="4.51" height="4.51"/><rect x="126.88" y="204.71" width="4.51" height="4.51"/><rect x="131.39" y="204.71" width="4.51" height="4.51"/><rect x="135.9" y="204.71" width="4.51" height="4.51"/><rect x="149.43" y="204.71" width="4.51" height="4.51"/><rect x="158.45" y="204.71" width="4.51" height="4.51"/><rect x="176.49" y="204.71" width="4.51" height="4.51"/><rect x="181" y="204.71" width="4.51" height="4.51"/><rect x="194.53" y="204.71" width="4.51" height="4.51"/><rect x="86.29" y="209.22" width="4.51" height="4.51"/><rect x="95.31" y="209.22" width="4.51" height="4.51"/><rect x="99.82" y="209.22" width="4.51" height="4.51"/><rect x="104.33" y="209.22" width="4.51" height="4.51"/><rect x="113.35" y="209.22" width="4.51" height="4.51"/><rect x="122.37" y="209.22" width="4.51" height="4.51"/><rect x="135.9" y="209.22" width="4.51" height="4.51"/><rect x="140.41" y="209.22" width="4.51" height="4.51"/><rect x="144.92" y="209.22" width="4.51" height="4.51"/><rect x="149.43" y="209.22" width="4.51" height="4.51"/><rect x="153.94" y="209.22" width="4.51" height="4.51"/><rect x="158.45" y="209.22" width="4.51" height="4.51"/><rect x="162.96" y="209.22" width="4.51" height="4.51"/><rect x="167.47" y="209.22" width="4.51" height="4.51"/><rect x="171.98" y="209.22" width="4.51" height="4.51"/><rect x="176.49" y="209.22" width="4.51" height="4.51"/><rect x="181" y="209.22" width="4.51" height="4.51"/><rect x="185.51" y="209.22" width="4.51" height="4.51"/><rect x="86.29" y="213.73" width="4.51" height="4.51"/><rect x="95.31" y="213.73" width="4.51" height="4.51"/><rect x="99.82" y="213.73" width="4.51" height="4.51"/><rect x="104.33" y="213.73" width="4.51" height="4.51"/><rect x="113.35" y="213.73" width="4.51" height="4.51"/><rect x="122.37" y="213.73" width="4.51" height="4.51"/><rect x="126.88" y="213.73" width="4.51" height="4.51"/><rect x="131.39" y="213.73" width="4.51" height="4.51"/><rect x="140.41" y="213.73" width="4.51" height="4.51"/><rect x="144.92" y="213.73" width="4.51" height="4.51"/><rect x="162.96" y="213.73" width="4.51" height="4.51"/><rect x="167.47" y="213.73" width="4.51" height="4.51"/><rect x="171.98" y="213.73" width="4.51" height="4.51"/><rect x="176.49" y="213.73" width="4.51" height="4.51"/><rect x="185.51" y="213.73" width="4.51" height="4.51"/><rect x="190.02" y="213.73" width="4.51" height="4.51"/><rect x="194.53" y="213.73" width="4.51" height="4.51"/><rect x="86.29" y="218.24" width="4.51" height="4.51"/><rect x="95.31" y="218.24" width="4.51" height="4.51"/><rect x="99.82" y="218.24" width="4.51" height="4.51"/><rect x="104.33" y="218.24" width="4.51" height="4.51"/><rect x="113.35" y="218.24" width="4.51" height="4.51"/><rect x="122.37" y="218.24" width="4.51" height="4.51"/><rect x="131.39" y="218.24" width="4.51" height="4.51"/><rect x="144.92" y="218.24" width="4.51" height="4.51"/><rect x="149.43" y="218.24" width="4.51" height="4.51"/><rect x="153.94" y="218.24" width="4.51" height="4.51"/><rect x="171.98" y="218.24" width="4.51" height="4.51"/><rect x="185.51" y="218.24" width="4.51" height="4.51"/><rect x="194.53" y="218.24" width="4.51" height="4.51"/><rect x="86.29" y="222.75" width="4.51" height="4.51"/><rect x="113.35" y="222.75" width="4.51" height="4.51"/><rect x="122.37" y="222.75" width="4.51" height="4.51"/><rect x="126.88" y="222.75" width="4.51" height="4.51"/><rect x="149.43" y="222.75" width="4.51" height="4.51"/><rect x="153.94" y="222.75" width="4.51" height="4.51"/><rect x="158.45" y="222.75" width="4.51" height="4.51"/><rect x="162.96" y="222.75" width="4.51" height="4.51"/><rect x="171.98" y="222.75" width="4.51" height="4.51"/><rect x="176.49" y="222.75" width="4.51" height="4.51"/><rect x="181" y="222.75" width="4.51" height="4.51"/><rect x="194.53" y="222.75" width="4.51" height="4.51"/><rect x="86.29" y="227.26" width="4.51" height="4.51"/><rect x="90.8" y="227.26" width="4.51" height="4.51"/><rect x="95.31" y="227.26" width="4.51" height="4.51"/><rect x="99.82" y="227.26" width="4.51" height="4.51"/><rect x="104.33" y="227.26" width="4.51" height="4.51"/><rect x="108.84" y="227.26" width="4.51" height="4.51"/><rect x="113.35" y="227.26" width="4.51" height="4.51"/><rect x="122.37" y="227.26" width="4.51" height="4.51"/><rect x="135.9" y="227.26" width="4.51" height="4.51"/><rect x="140.41" y="227.26" width="4.51" height="4.51"/><rect x="144.92" y="227.26" width="4.51" height="4.51"/><rect x="149.43" y="227.26" width="4.51" height="4.51"/><rect x="171.98" y="227.26" width="4.51" height="4.51"/><rect x="176.49" y="227.26" width="4.51" height="4.51"/><rect x="181" y="227.26" width="4.51" height="4.51"/><rect x="185.51" y="227.26" width="4.51" height="4.51"/><rect x="190.02" y="227.26" width="4.51" height="4.51"/><rect x="194.53" y="227.26" width="4.51" height="4.51"/></g></g></svg>